<svg xmlns="http://www.w3.org/2000/svg" xmlns:xlink="http://www.w3.org/1999/xlink" viewBox="0 0 130 130" width="130" height="130" preserveAspectRatio="xMidYMid meet" style="width: 100%; height: 100%; transform: translate3d(0px, 0px, 0px); content-visibility: visible;"><defs><clipPath id="__lottie_element_282"><rect width="130" height="130" x="0" y="0"/></clipPath></defs><g clip-path="url(#__lottie_element_282)"><g transform="matrix(0.11999737471342087,0.0007946427213028073,-0.0007946427213028073,0.11999737471342087,8.923418045043945,7.40491247177124)" opacity="1" style="display: block;"><g opacity="1" transform="matrix(1,0,0,1,470.072998046875,470.072998046875)"><path fill="rgb(0,199,2)" fill-opacity="1" d=" M77.00199890136719,-389.822998046875 C77.00199890136719,-389.822998046875 -77.00199890136719,-389.822998046875 -77.00199890136719,-389.822998046875 C-77.00199890136719,-389.822998046875 -389.822998046875,-77.00199890136719 -389.822998046875,-77.00199890136719 C-389.822998046875,-77.00199890136719 -389.822998046875,77.00199890136719 -389.822998046875,77.00199890136719 C-389.822998046875,77.00199890136719 -77.00199890136719,389.822998046875 -77.00199890136719,389.822998046875 C-77.00199890136719,389.822998046875 77.00199890136719,389.822998046875 77.00199890136719,389.822998046875 C77.00199890136719,389.822998046875 389.822998046875,77.00199890136719 389.822998046875,77.00199890136719 C389.822998046875,77.00199890136719 389.822998046875,-77.00199890136719 389.822998046875,-77.00199890136719 C389.822998046875,-77.00199890136719 77.00199890136719,-389.822998046875 77.00199890136719,-389.822998046875z"/></g><g opacity="1" transform="matrix(1,0,0,1,799.3319702148438,470.0740051269531)"><path fill="rgb(26,211,27)" fill-opacity="1" d=" M-53.676998138427734,-55.82899856567383 C-53.676998138427734,-55.82899856567383 -60.356998443603516,76.13700103759766 -60.356998443603516,76.13700103759766 C-60.356998443603516,76.13700103759766 60.356998443603516,77.21099853515625 60.356998443603516,77.21099853515625 C60.356998443603516,77.21099853515625 60.356998443603516,-77.20999908447266 60.356998443603516,-77.20999908447266 C60.356998443603516,-77.20999908447266 -53.676998138427734,-55.82899856567383 -53.676998138427734,-55.82899856567383z"/></g><g opacity="1" transform="matrix(1,0,0,1,677.64599609375,693.8140258789062)"><path fill="rgb(0,162,2)" fill-opacity="1" d=" M182.25100708007812,-156.11399841308594 C182.25100708007812,-156.11399841308594 66.37000274658203,-166.08200073242188 66.37000274658203,-166.08200073242188 C66.37000274658203,-166.08200073242188 -182.25100708007812,8.625 -182.25100708007812,8.625 C-182.25100708007812,8.625 -138.2760009765625,166.08200073242188 -138.2760009765625,166.08200073242188 C-138.2760009765625,166.08200073242188 -130.57000732421875,166.08200073242188 -130.57000732421875,166.08200073242188 C-130.57000732421875,166.08200073242188 182.25100708007812,-146.73899841308594 182.25100708007812,-146.73899841308594 C182.25100708007812,-146.73899841308594 182.25100708007812,-156.11399841308594 182.25100708007812,-156.11399841308594z"/></g><g opacity="1" transform="matrix(1,0,0,1,470.072998046875,802.1820068359375)"><path fill="rgb(0,134,1)" fill-opacity="1" d=" M54.64099884033203,-57.71500015258789 C54.64099884033203,-57.71500015258789 -55.82899856567383,-56.52799987792969 -55.82899856567383,-56.52799987792969 C-55.82899856567383,-56.52799987792969 -77.00199890136719,57.71500015258789 -77.00199890136719,57.71500015258789 C-77.00199890136719,57.71500015258789 77.00199890136719,57.71500015258789 77.00199890136719,57.71500015258789 C77.00199890136719,57.71500015258789 54.64099884033203,-57.71500015258789 54.64099884033203,-57.71500015258789z"/></g><g opacity="1" transform="matrix(1,0,0,1,470.072998046875,470.0740051269531)"><path fill="rgb(28,230,29)" fill-opacity="1" d=" M54.66600036621094,-276.7449951171875 C54.66600036621094,-276.7449951171875 -54.66600036621094,-276.7449951171875 -54.66600036621094,-276.7449951171875 C-54.66600036621094,-276.7449951171875 -276.7439880371094,-54.66600036621094 -276.7439880371094,-54.66600036621094 C-276.7439880371094,-54.66600036621094 -276.7439880371094,54.66600036621094 -276.7439880371094,54.66600036621094 C-276.7439880371094,54.66600036621094 -54.66600036621094,276.7449951171875 -54.66600036621094,276.7449951171875 C-54.66600036621094,276.7449951171875 54.66600036621094,276.7449951171875 54.66600036621094,276.7449951171875 C54.66600036621094,276.7449951171875 276.7449951171875,54.66600036621094 276.7449951171875,54.66600036621094 C276.7449951171875,54.66600036621094 276.7449951171875,-54.66600036621094 276.7449951171875,-54.66600036621094 C276.7449951171875,-54.66600036621094 54.66600036621094,-276.7449951171875 54.66600036621094,-276.7449951171875z"/></g><g opacity="1" transform="matrix(1,0,0,1,470.072998046875,470.072998046875)"><path fill="rgb(0,199,2)" fill-opacity="1" d=" M18.687000274658203,178.71400451660156 C18.687000274658203,178.71400451660156 -18.687000274658203,178.71400451660156 -18.687000274658203,178.71400451660156 C-29.753999710083008,178.71400451660156 -40.15599822998047,174.40499877929688 -47.98099899291992,166.5800018310547 C-47.98099899291992,166.5800018310547 -166.5800018310547,47.981998443603516 -166.5800018310547,47.981998443603516 C-174.40499877929688,40.15700149536133 -178.71499633789062,29.753000259399414 -178.71499633789062,18.687999725341797 C-178.71499633789062,18.687999725341797 -178.71499633789062,-18.687000274658203 -178.71499633789062,-18.687000274658203 C-178.71499633789062,-29.753000259399414 -174.40499877929688,-40.15599822998047 -166.5800018310547,-47.98099899291992 C-166.5800018310547,-47.98099899291992 -47.98099899291992,-166.57899475097656 -47.98099899291992,-166.57899475097656 C-40.15599822998047,-174.4040069580078 -29.753999710083008,-178.71400451660156 -18.687000274658203,-178.71400451660156 C-18.687000274658203,-178.71400451660156 18.687000274658203,-178.71400451660156 18.687000274658203,-178.71400451660156 C29.753999710083008,-178.71400451660156 40.15599822998047,-174.4040069580078 47.98099899291992,-166.57899475097656 C47.98099899291992,-166.57899475097656 166.5800018310547,-47.98099899291992 166.5800018310547,-47.98099899291992 C174.40499877929688,-40.15599822998047 178.71499633789062,-29.753000259399414 178.71499633789062,-18.687000274658203 C178.71499633789062,-18.687000274658203 178.71499633789062,18.687999725341797 178.71499633789062,18.687999725341797 C178.71499633789062,29.753000259399414 174.40499877929688,40.15700149536133 166.5800018310547,47.981998443603516 C166.5800018310547,47.981998443603516 47.98099899291992,166.5800018310547 47.98099899291992,166.5800018310547 C40.15599822998047,174.40499877929688 29.753999710083008,178.71400451660156 18.687000274658203,178.71400451660156z M-18.687000274658203,-173.6739959716797 C-28.406999588012695,-173.6739959716797 -37.54499816894531,-169.88900756835938 -44.417999267578125,-163.01600646972656 C-44.417999267578125,-163.01600646972656 -163.01699829101562,-44.417999267578125 -163.01699829101562,-44.417999267578125 C-169.89100646972656,-37.54399871826172 -173.6750030517578,-28.4060001373291 -173.6750030517578,-18.687000274658203 C-173.6750030517578,-18.687000274658203 -173.6750030517578,18.687999725341797 -173.6750030517578,18.687999725341797 C-173.6750030517578,28.408000946044922 -169.89100646972656,37.54499816894531 -163.01699829101562,44.417999267578125 C-163.01699829101562,44.417999267578125 -44.417999267578125,163.01699829101562 -44.417999267578125,163.01699829101562 C-37.54499816894531,169.88999938964844 -28.406999588012695,173.6750030517578 -18.687000274658203,173.6750030517578 C-18.687000274658203,173.6750030517578 18.687000274658203,173.6750030517578 18.687000274658203,173.6750030517578 C28.406999588012695,173.6750030517578 37.54399871826172,169.88999938964844 44.417999267578125,163.01699829101562 C44.417999267578125,163.01699829101562 163.01699829101562,44.417999267578125 163.01699829101562,44.417999267578125 C169.89100646972656,37.54499816894531 173.6750030517578,28.408000946044922 173.6750030517578,18.687999725341797 C173.6750030517578,18.687999725341797 173.6750030517578,-18.687000274658203 173.6750030517578,-18.687000274658203 C173.6750030517578,-28.4060001373291 169.89100646972656,-37.54399871826172 163.01699829101562,-44.417999267578125 C163.01699829101562,-44.417999267578125 44.417999267578125,-163.01600646972656 44.417999267578125,-163.01600646972656 C37.54399871826172,-169.88900756835938 28.406999588012695,-173.6739959716797 18.687000274658203,-173.6739959716797 C18.687000274658203,-173.6739959716797 -18.687000274658203,-173.6739959716797 -18.687000274658203,-173.6739959716797z"/></g><g opacity="1" transform="matrix(1,0,0,1,137.47500610351562,470.072998046875)"><path fill="rgb(0,162,2)" fill-opacity="1" d=" M-57.611000061035156,76.61599731445312 C-57.611000061035156,76.61599731445312 56.42300033569336,55.23500061035156 56.42300033569336,55.23500061035156 C56.42300033569336,55.23500061035156 57.611000061035156,-55.23500061035156 57.611000061035156,-55.23500061035156 C57.611000061035156,-55.23500061035156 -56.42300033569336,-76.61599731445312 -56.42300033569336,-76.61599731445312 C-56.42300033569336,-76.61599731445312 -57.611000061035156,76.61599731445312 -57.611000061035156,76.61599731445312z"/></g><g opacity="1" transform="matrix(1,0,0,1,469.47900390625,138.06900024414062)"><path fill="rgb(54,255,54)" fill-opacity="1" d=" M-55.82899856567383,58.20399856567383 C-55.82899856567383,58.20399856567383 -77.20999908447266,-58.20399856567383 -77.20999908447266,-58.20399856567383 C-77.20999908447266,-58.20399856567383 77.20999908447266,-58.20399856567383 77.20999908447266,-58.20399856567383 C77.20999908447266,-58.20399856567383 55.82899856567383,55.827999114990234 55.82899856567383,55.827999114990234 C55.82899856567383,55.827999114990234 -55.82899856567383,58.20399856567383 -55.82899856567383,58.20399856567383z"/></g></g><g transform="matrix(0.09999380260705948,0.0011139503913000226,-0.0011139503913000226,0.09999380260705948,64.96559143066406,67.55181884765625)" opacity="1" style="display: none;"><g opacity="1" transform="matrix(1,0,0,1,0,0)"><path fill="rgb(177,252,177)" fill-opacity="1" d=" M-28.577999114990234,-360.5570068359375 C-28.577999114990234,-360.5570068359375 -47.69499969482422,-364.4590148925781 -60.02299880981445,-374.927001953125 C-72.35099792480469,-385.3949890136719 -80.177001953125,-407.4880065917969 -80.177001953125,-407.4880065917969 C-80.177001953125,-407.4880065917969 -70.74099731445312,-359.48199462890625 -70.74099731445312,-359.48199462890625 C-70.74099731445312,-359.48199462890625 -70.80999755859375,-359.43499755859375 -70.80999755859375,-359.43499755859375 C-70.80999755859375,-359.43499755859375 -70.71900177001953,-359.3710021972656 -70.71900177001953,-359.3710021972656 C-70.71900177001953,-359.3710021972656 -70.50900268554688,-359.4219970703125 -70.50900268554688,-359.4219970703125 C-70.50900268554688,-359.4219970703125 -70.50900268554688,-359.6730041503906 -70.50900268554688,-359.6730041503906 C-70.50900268554688,-359.6730041503906 -28.577999114990234,-360.5570068359375 -28.577999114990234,-360.5570068359375z"/></g></g><g transform="matrix(0.09999874979257584,0.0004998893709853292,-0.0004998893709853292,0.09999874979257584,64.99494171142578,65.19949340820312)" opacity="1" style="display: block;"><g opacity="1" transform="matrix(1,0,0,1,0,0)"><path fill="rgb(61,255,62)" fill-opacity="1" d=" M217.7155303955078,171.45213317871094 C217.7155303955078,171.45213317871094 144.9068603515625,215.2633056640625 -6.711537837982178,210.66854858398438 C-144.24302673339844,206.4991912841797 -220.54452514648438,168.37286376953125 -220.54452514648438,168.37286376953125 C-220.54452514648438,168.37286376953125 -67.59400177001953,322.2279968261719 -67.59400177001953,322.2279968261719 C-67.59400177001953,322.2279968261719 -67.76399993896484,322.3819885253906 -67.76399993896484,322.3819885253906 C-67.76399993896484,322.3819885253906 -67.83699798583984,322.4150085449219 -67.83699798583984,322.4150085449219 C-67.83699798583984,322.4150085449219 -67.50700378417969,322.6780090332031 -67.50700378417969,322.6780090332031 C-67.50700378417969,322.6780090332031 66.35600280761719,322.10101318359375 66.35600280761719,322.10101318359375 C66.35600280761719,322.10101318359375 66.02100372314453,322.0679931640625 66.02100372314453,322.0679931640625 C66.02100372314453,322.0679931640625 66.03199768066406,321.989990234375 66.03199768066406,321.989990234375 C66.03199768066406,321.989990234375 217.7155303955078,171.45213317871094 217.7155303955078,171.45213317871094z"/></g></g><g transform="matrix(0.09999335557222366,0.001152653363533318,-0.001152653363533318,0.09999335557222366,64.97554779052734,67.11126708984375)" opacity="1" style="display: none;"><g opacity="1" transform="matrix(1,0,0,1,0,0)"><path fill="rgb(10,228,12)" fill-opacity="1" d=" M-412.302001953125,-168.68299865722656 C-412.302001953125,-168.68299865722656 -468.1310119628906,-112.13600158691406 -468.1310119628906,-112.13600158691406 C-468.1310119628906,-112.13600158691406 -468.218994140625,-111.68900299072266 -468.218994140625,-111.68900299072266 C-468.218994140625,-111.68900299072266 -401.13299560546875,-99.45999908447266 -401.13299560546875,-99.45999908447266 C-401.13299560546875,-99.45999908447266 -400.96600341796875,-99.54000091552734 -400.96600341796875,-99.54000091552734 C-400.96600341796875,-99.54000091552734 -412.302001953125,-168.68299865722656 -412.302001953125,-168.68299865722656z"/></g></g><g transform="matrix(0.09999998658895493,0.00006181378557812423,-0.00006181378557812423,0.09999998658895493,64.99991607666016,64.37261199951172)" opacity="1" style="display: block;"><g opacity="1" transform="matrix(1,0,0,1,0,0)"><path fill="rgb(10,228,12)" fill-opacity="1" d=" M-280.3506164550781,114.49248504638672 C-280.3506164550781,114.49248504638672 -292.4772033691406,102.4549789428711 -292.4772033691406,102.4549789428711 C-292.4772033691406,102.4549789428711 -337.928955078125,220.35939025878906 -337.928955078125,220.35939025878906 C-337.928955078125,220.35939025878906 -169.16090393066406,391.0574951171875 -169.16090393066406,391.0574951171875 C-169.16090393066406,391.0574951171875 -141.2887420654297,256.53875732421875 -141.2887420654297,256.53875732421875 C-141.2887420654297,256.53875732421875 -280.3506164550781,114.49248504638672 -280.3506164550781,114.49248504638672z"/></g></g><g transform="matrix(0.11999737471342087,0.0007946427213028073,-0.0007946427213028073,0.11999737471342087,8.923418045043945,7.40491247177124)" opacity="1" style="display: block;"><g opacity="1" transform="matrix(1,0,0,1,470.072998046875,470.072998046875)"><path fill="rgb(0,199,2)" fill-opacity="1" d=" M18.687000274658203,178.71400451660156 C18.687000274658203,178.71400451660156 -18.687000274658203,178.71400451660156 -18.687000274658203,178.71400451660156 C-29.753999710083008,178.71400451660156 -40.15599822998047,174.40499877929688 -47.98099899291992,166.5800018310547 C-47.98099899291992,166.5800018310547 -166.5800018310547,47.981998443603516 -166.5800018310547,47.981998443603516 C-174.40499877929688,40.15700149536133 -178.71499633789062,29.753000259399414 -178.71499633789062,18.687999725341797 C-178.71499633789062,18.687999725341797 -178.71499633789062,-18.687000274658203 -178.71499633789062,-18.687000274658203 C-178.71499633789062,-29.753000259399414 -174.40499877929688,-40.15599822998047 -166.5800018310547,-47.98099899291992 C-166.5800018310547,-47.98099899291992 -47.98099899291992,-166.57899475097656 -47.98099899291992,-166.57899475097656 C-40.15599822998047,-174.4040069580078 -29.753999710083008,-178.71400451660156 -18.687000274658203,-178.71400451660156 C-18.687000274658203,-178.71400451660156 18.687000274658203,-178.71400451660156 18.687000274658203,-178.71400451660156 C29.753999710083008,-178.71400451660156 40.15599822998047,-174.4040069580078 47.98099899291992,-166.57899475097656 C47.98099899291992,-166.57899475097656 166.5800018310547,-47.98099899291992 166.5800018310547,-47.98099899291992 C174.40499877929688,-40.15599822998047 178.71499633789062,-29.753000259399414 178.71499633789062,-18.687000274658203 C178.71499633789062,-18.687000274658203 178.71499633789062,18.687999725341797 178.71499633789062,18.687999725341797 C178.71499633789062,29.753000259399414 174.40499877929688,40.15700149536133 166.5800018310547,47.981998443603516 C166.5800018310547,47.981998443603516 47.98099899291992,166.5800018310547 47.98099899291992,166.5800018310547 C40.15599822998047,174.40499877929688 29.753999710083008,178.71400451660156 18.687000274658203,178.71400451660156z M-18.687000274658203,-173.6739959716797 C-28.406999588012695,-173.6739959716797 -37.54499816894531,-169.88900756835938 -44.417999267578125,-163.01600646972656 C-44.417999267578125,-163.01600646972656 -163.01699829101562,-44.417999267578125 -163.01699829101562,-44.417999267578125 C-169.89100646972656,-37.54399871826172 -173.6750030517578,-28.4060001373291 -173.6750030517578,-18.687000274658203 C-173.6750030517578,-18.687000274658203 -173.6750030517578,18.687999725341797 -173.6750030517578,18.687999725341797 C-173.6750030517578,28.408000946044922 -169.89100646972656,37.54499816894531 -163.01699829101562,44.417999267578125 C-163.01699829101562,44.417999267578125 -44.417999267578125,163.01699829101562 -44.417999267578125,163.01699829101562 C-37.54499816894531,169.88999938964844 -28.406999588012695,173.6750030517578 -18.687000274658203,173.6750030517578 C-18.687000274658203,173.6750030517578 18.687000274658203,173.6750030517578 18.687000274658203,173.6750030517578 C28.406999588012695,173.6750030517578 37.54399871826172,169.88999938964844 44.417999267578125,163.01699829101562 C44.417999267578125,163.01699829101562 163.01699829101562,44.417999267578125 163.01699829101562,44.417999267578125 C169.89100646972656,37.54499816894531 173.6750030517578,28.408000946044922 173.6750030517578,18.687999725341797 C173.6750030517578,18.687999725341797 173.6750030517578,-18.687000274658203 173.6750030517578,-18.687000274658203 C173.6750030517578,-28.4060001373291 169.89100646972656,-37.54399871826172 163.01699829101562,-44.417999267578125 C163.01699829101562,-44.417999267578125 44.417999267578125,-163.01600646972656 44.417999267578125,-163.01600646972656 C37.54399871826172,-169.88900756835938 28.406999588012695,-173.6739959716797 18.687000274658203,-173.6739959716797 C18.687000274658203,-173.6739959716797 -18.687000274658203,-173.6739959716797 -18.687000274658203,-173.6739959716797z"/></g></g><g transform="matrix(0.3438040018081665,-0.6250379085540771,0.6250379085540771,0.3438040018081665,101.07515716552734,106.36669158935547)" opacity="0.7327829337436053" style="display: block;"><g opacity="1" transform="matrix(1,0,0,1,0,0)"><path fill="rgb(255,255,255)" fill-opacity="1" d=" M59.625,-53.375 C59.625,-53.375 59.99300003051758,-47.981998443603516 61.61399841308594,-46.097999572753906 C63.07600021362305,-44.39899826049805 68.875,-44.25 68.875,-44.25 C68.875,-44.25 63.46099853515625,-43.130001068115234 61.941001892089844,-41.69499969482422 C60.46099853515625,-40.297000885009766 60.25,-34.75 60.25,-34.75 C60.25,-34.75 60.01900100708008,-40.20800018310547 58.090999603271484,-41.624000549316406 C55.93600082397461,-43.20800018310547 50.625,-43.75 50.625,-43.75 C50.625,-43.75 55.30400085449219,-43.499000549316406 57.63399887084961,-45.48899841308594 C59.78300094604492,-47.32500076293945 59.625,-53.375 59.625,-53.375z"/></g></g><g transform="matrix(0.9629751443862915,0.08824604749679565,-0.08824604749679565,0.9629751443862915,-23.10725212097168,113.38430786132812)" opacity="0.9215727678218106" style="display: block;"><g opacity="1" transform="matrix(1,0,0,1,0,0)"><path fill="rgb(255,255,255)" fill-opacity="1" d=" M59.625,-53.375 C59.625,-53.375 59.99300003051758,-47.981998443603516 61.61399841308594,-46.097999572753906 C63.07600021362305,-44.39899826049805 68.875,-44.25 68.875,-44.25 C68.875,-44.25 63.46099853515625,-43.130001068115234 61.941001892089844,-41.69499969482422 C60.46099853515625,-40.297000885009766 60.25,-34.75 60.25,-34.75 C60.25,-34.75 60.01900100708008,-40.20800018310547 58.090999603271484,-41.624000549316406 C55.93600082397461,-43.20800018310547 50.625,-43.75 50.625,-43.75 C50.625,-43.75 55.30400085449219,-43.499000549316406 57.63399887084961,-45.48899841308594 C59.78300094604492,-47.32500076293945 59.625,-53.375 59.625,-53.375z"/></g></g></g></svg>