<svg xmlns="http://www.w3.org/2000/svg" xmlns:xlink="http://www.w3.org/1999/xlink" viewBox="0 0 130 130" width="130" height="130" preserveAspectRatio="xMidYMid meet" style="width: 100%; height: 100%; transform: translate3d(0px, 0px, 0px); content-visibility: visible;"><defs><clipPath id="__lottie_element_33"><rect width="130" height="130" x="0" y="0"/></clipPath></defs><g clip-path="url(#__lottie_element_33)"><g transform="matrix(0.12499524652957916,0.001090794219635427,-0.001090794219635427,0.12499524652957916,10.529051780700684,-2.0190622806549072)" opacity="1" style="display: block;"><g opacity="1" transform="matrix(1,0,0,1,443.8789978027344,501.05499267578125)"><path fill="rgb(253,226,46)" fill-opacity="1" d=" M321.98699951171875,117.49500274658203 C321.98699951171875,117.49500274658203 321.80999755859375,116.10900115966797 321.80999755859375,116.10900115966797 C321.80999755859375,116.10900115966797 267.1600036621094,-67.13200378417969 267.1600036621094,-67.13200378417969 C267.1600036621094,-67.13200378417969 266.864990234375,-67.64299774169922 266.864990234375,-67.64299774169922 C266.864990234375,-67.64299774169922 92.24500274658203,-270.6839904785156 92.24500274658203,-270.6839904785156 C92.24500274658203,-270.6839904785156 0.07500000298023224,-377.85699462890625 0.07500000298023224,-377.85699462890625 C0.07500000298023224,-377.85699462890625 0.07500000298023224,-378.0320129394531 0.07500000298023224,-378.0320129394531 C0.07500000298023224,-378.0320129394531 0,-377.9440002441406 0,-377.9440002441406 C0,-377.9440002441406 -0.07500000298023224,-378.0320129394531 -0.07500000298023224,-378.0320129394531 C-0.07500000298023224,-378.0320129394531 -0.07500000298023224,-377.85699462890625 -0.07500000298023224,-377.85699462890625 C-0.07500000298023224,-377.85699462890625 -92.24500274658203,-270.6839904785156 -92.24500274658203,-270.6839904785156 C-92.24500274658203,-270.6839904785156 -266.864990234375,-67.64299774169922 -266.864990234375,-67.64299774169922 C-266.864990234375,-67.64299774169922 -267.1600036621094,-67.13200378417969 -267.1600036621094,-67.13200378417969 C-267.1600036621094,-67.13200378417969 -321.80999755859375,116.10900115966797 -321.80999755859375,116.10900115966797 C-321.80999755859375,116.10900115966797 -321.98699951171875,117.49500274658203 -321.98699951171875,117.49500274658203 C-321.98699951171875,117.49500274658203 -343.8559875488281,296.1990051269531 -343.8559875488281,296.1990051269531 C-343.8559875488281,296.1990051269531 -342.3169860839844,296.7820129394531 -342.3169860839844,296.7820129394531 C-342.3169860839844,296.7820129394531 -341.4849853515625,297.09698486328125 -341.4849853515625,297.09698486328125 C-341.4849853515625,297.09698486328125 -180.7830047607422,357.81201171875 -180.7830047607422,357.81201171875 C-180.7830047607422,357.81201171875 -180.7530059814453,357.9179992675781 -180.7530059814453,357.9179992675781 C-180.7530059814453,357.9179992675781 -2.2809998989105225,378.0329895019531 -2.2809998989105225,378.0329895019531 C-2.2809998989105225,378.0329895019531 2.2809998989105225,378.0329895019531 2.2809998989105225,378.0329895019531 C2.2809998989105225,378.0329895019531 180.7530059814453,357.9179992675781 180.7530059814453,357.9179992675781 C180.7530059814453,357.9179992675781 180.7830047607422,357.81201171875 180.7830047607422,357.81201171875 C180.7830047607422,357.81201171875 341.4849853515625,297.09698486328125 341.4849853515625,297.09698486328125 C341.4849853515625,297.09698486328125 342.3169860839844,296.7820129394531 342.3169860839844,296.7820129394531 C342.3169860839844,296.7820129394531 343.8559875488281,296.1990051269531 343.8559875488281,296.1990051269531 C343.8559875488281,296.1990051269531 321.98699951171875,117.49500274658203 321.98699951171875,117.49500274658203z"/></g><g opacity="1" transform="matrix(1,0,0,1,170.8820037841797,734.6339721679688)"><path fill="rgb(253,207,46)" fill-opacity="1" d=" M69.11399841308594,40.62799835205078 C69.11399841308594,40.62799835205078 51.14400100708008,-32.67499923706055 51.14400100708008,-32.67499923706055 C51.14400100708008,-32.67499923706055 13.718999862670898,-63.518001556396484 13.718999862670898,-63.518001556396484 C13.718999862670898,-63.518001556396484 -69.31900024414062,63.20199966430664 -69.31900024414062,63.20199966430664 C-69.31900024414062,63.20199966430664 -68.48799896240234,63.518001556396484 -68.48799896240234,63.518001556396484 C-68.48799896240234,63.518001556396484 69.31900024414062,41.34600067138672 69.31900024414062,41.34600067138672 C69.31900024414062,41.34600067138672 69.11399841308594,40.62799835205078 69.11399841308594,40.62799835205078z"/></g><g opacity="1" transform="matrix(1,0,0,1,142.31199645996094,708.1929931640625)"><path fill="rgb(253,226,46)" fill-opacity="1" d=" M-20.41900062561035,-89.64299774169922 C-20.41900062561035,-89.64299774169922 -42.28799819946289,89.05999755859375 -42.28799819946289,89.05999755859375 C-42.28799819946289,89.05999755859375 -40.749000549316406,89.64299774169922 -40.749000549316406,89.64299774169922 C-40.749000549316406,89.64299774169922 42.28799819946289,-37.07699966430664 42.28799819946289,-37.07699966430664 C42.28799819946289,-37.07699966430664 -20.41900062561035,-89.64299774169922 -20.41900062561035,-89.64299774169922z"/></g><g opacity="1" transform="matrix(1,0,0,1,397.7950134277344,187.13400268554688)"><path fill="rgb(253,249,144)" fill-opacity="1" d=" M-3.2960000038146973,64.11100006103516 C-3.2960000038146973,64.11100006103516 -3.2960000038146973,64.11100006103516 -3.2960000038146973,64.11100006103516 C-3.2960000038146973,64.11100006103516 46.154998779296875,-63.45899963378906 46.154998779296875,-63.45899963378906 C46.154998779296875,-63.45899963378906 46.15999984741211,-63.44300079345703 46.15999984741211,-63.44300079345703 C46.15999984741211,-63.44300079345703 46.15999984741211,-64.11100006103516 46.15999984741211,-64.11100006103516 C46.15999984741211,-64.11100006103516 -46.15999984741211,43.236000061035156 -46.15999984741211,43.236000061035156 C-46.15999984741211,43.236000061035156 -3.2960000038146973,64.11100006103516 -3.2960000038146973,64.11100006103516z"/></g><g opacity="1" transform="matrix(1,0,0,1,242.3070068359375,598.5079956054688)"><path fill="rgb(253,207,46)" fill-opacity="1" d=" M-57.70600128173828,72.60900115966797 C-57.70600128173828,72.60900115966797 -22.242000579833984,103.51699829101562 -22.242000579833984,103.51699829101562 C-22.242000579833984,103.51699829101562 57.70600128173828,-103.51699829101562 57.70600128173828,-103.51699829101562 C57.70600128173828,-103.51699829101562 -57.70600128173828,72.60900115966797 -57.70600128173828,72.60900115966797z"/></g><g opacity="1" transform="matrix(1,0,0,1,332.010986328125,738.989013671875)"><path fill="rgb(253,207,46)" fill-opacity="1" d=" M111.93900299072266,4.019999980926514 C111.93900299072266,4.019999980926514 -111.94400024414062,-36.9640007019043 -111.94400024414062,-36.9640007019043 C-111.94400024414062,-36.9640007019043 -91.64800262451172,36.9640007019043 -91.64800262451172,36.9640007019043 C-91.64800262451172,36.9640007019043 111.94400024414062,4.178999900817871 111.94400024414062,4.178999900817871 C111.94400024414062,4.178999900817871 111.94400024414062,4.019000053405762 111.94400024414062,4.019000053405762 C111.94400024414062,4.019000053405762 111.93900299072266,4.019999980926514 111.93900299072266,4.019999980926514z"/></g><g opacity="1" transform="matrix(1,0,0,1,340.9800109863281,827.52001953125)"><path fill="rgb(253,249,99)" fill-opacity="1" d=" M-100.61799621582031,-51.56800079345703 C-100.61799621582031,-51.56800079345703 -77.85399627685547,31.45400047302246 -77.85399627685547,31.45400047302246 C-77.85399627685547,31.45400047302246 100.61799621582031,51.56800079345703 100.61799621582031,51.56800079345703 C100.61799621582031,51.56800079345703 -100.61799621582031,-51.56800079345703 -100.61799621582031,-51.56800079345703z"/></g><g opacity="1" transform="matrix(1,0,0,1,182.75999450683594,817.427978515625)"><path fill="rgb(253,226,46)" fill-opacity="1" d=" M57.441001892089844,-41.44900131225586 C57.441001892089844,-41.44900131225586 -80.36599731445312,-19.277000427246094 -80.36599731445312,-19.277000427246094 C-80.36599731445312,-19.277000427246094 80.36599731445312,41.44900131225586 80.36599731445312,41.44900131225586 C80.36599731445312,41.44900131225586 57.441001892089844,-41.44900131225586 57.441001892089844,-41.44900131225586z"/></g><g opacity="1" transform="matrix(1,0,0,1,285.7560119628906,331.8909912109375)"><path fill="rgb(253,249,144)" fill-opacity="1" d=" M65.87799835205078,-101.52100372314453 C65.87799835205078,-101.52100372314453 -108.74199676513672,101.52100372314453 -108.74199676513672,101.52100372314453 C-108.74199676513672,101.52100372314453 108.74199676513672,-80.64600372314453 108.74199676513672,-80.64600372314453 C108.74199676513672,-80.64600372314453 65.87799835205078,-101.52100372314453 65.87799835205078,-101.52100372314453z"/></g><g opacity="1" transform="matrix(1,0,0,1,153.2469940185547,552.52001953125)"><path fill="rgb(253,249,144)" fill-opacity="1" d=" M-31.177000045776367,64.64399719238281 C-31.177000045776367,64.64399719238281 -31.354000091552734,66.03099822998047 -31.354000091552734,66.03099822998047 C-31.354000091552734,66.03099822998047 31.354000091552734,118.59700012207031 31.354000091552734,118.59700012207031 C31.354000091552734,118.59700012207031 31.354000091552734,118.59600067138672 31.354000091552734,118.59600067138672 C31.354000091552734,118.59600067138672 23.472999572753906,-118.59700012207031 23.472999572753906,-118.59700012207031 C23.472999572753906,-118.59700012207031 -31.177000045776367,64.64399719238281 -31.177000045776367,64.64399719238281z"/></g><g opacity="1" transform="matrix(1,0,0,1,285.6090087890625,461.17999267578125)"><path fill="rgb(253,226,46)" fill-opacity="1" d=" M-108.59400177001953,-27.768999099731445 C-108.59400177001953,-27.768999099731445 -108.88899993896484,-27.256999969482422 -108.88899993896484,-27.256999969482422 C-108.88899993896484,-27.256999969482422 -101.00800323486328,209.93499755859375 -101.00800323486328,209.93499755859375 C-101.00800323486328,209.93499755859375 14.406000137329102,33.81100082397461 14.406000137329102,33.81100082397461 C14.406000137329102,33.81100082397461 108.88899993896484,-209.93600463867188 108.88899993896484,-209.93600463867188 C108.88899993896484,-209.93600463867188 -108.59400177001953,-27.768999099731445 -108.59400177001953,-27.768999099731445z"/></g><g opacity="1" transform="matrix(1,0,0,1,371.9840087890625,373.1180114746094)"><path fill="rgb(253,207,46)" fill-opacity="1" d=" M71.97000122070312,-97.78800201416016 C71.97000122070312,-97.78800201416016 22.51300048828125,-121.87200164794922 22.51300048828125,-121.87200164794922 C22.51300048828125,-121.87200164794922 -71.97000122070312,121.87200164794922 -71.97000122070312,121.87200164794922 C-71.97000122070312,121.87200164794922 71.97000122070312,-97.78800201416016 71.97000122070312,-97.78800201416016z"/></g><g opacity="1" transform="matrix(1,0,0,1,716.8770141601562,734.6339721679688)"><path fill="rgb(253,172,46)" fill-opacity="1" d=" M-69.11399841308594,40.62799835205078 C-69.11399841308594,40.62799835205078 -51.14400100708008,-32.67499923706055 -51.14400100708008,-32.67499923706055 C-51.14400100708008,-32.67499923706055 -13.718000411987305,-63.518001556396484 -13.718000411987305,-63.518001556396484 C-13.718000411987305,-63.518001556396484 69.31999969482422,63.20199966430664 69.31999969482422,63.20199966430664 C69.31999969482422,63.20199966430664 68.48799896240234,63.518001556396484 68.48799896240234,63.518001556396484 C68.48799896240234,63.518001556396484 -69.31900024414062,41.34600067138672 -69.31900024414062,41.34600067138672 C-69.31900024414062,41.34600067138672 -69.11399841308594,40.62799835205078 -69.11399841308594,40.62799835205078z"/></g><g opacity="1" transform="matrix(1,0,0,1,745.447021484375,708.1929931640625)"><path fill="rgb(253,226,46)" fill-opacity="1" d=" M20.420000076293945,-89.64299774169922 C20.420000076293945,-89.64299774169922 42.28900146484375,89.05999755859375 42.28900146484375,89.05999755859375 C42.28900146484375,89.05999755859375 40.75,89.64299774169922 40.75,89.64299774169922 C40.75,89.64299774169922 -42.28799819946289,-37.07699966430664 -42.28799819946289,-37.07699966430664 C-42.28799819946289,-37.07699966430664 20.420000076293945,-89.64299774169922 20.420000076293945,-89.64299774169922z"/></g><g opacity="1" transform="matrix(1,0,0,1,489.9649963378906,187.13400268554688)"><path fill="rgb(253,249,144)" fill-opacity="1" d=" M3.296999931335449,64.11100006103516 C3.296999931335449,64.11100006103516 3.296999931335449,64.11100006103516 3.296999931335449,64.11100006103516 C3.296999931335449,64.11100006103516 -46.154998779296875,-63.45899963378906 -46.154998779296875,-63.45899963378906 C-46.154998779296875,-63.45899963378906 -46.15999984741211,-63.44300079345703 -46.15999984741211,-63.44300079345703 C-46.15999984741211,-63.44300079345703 -46.15999984741211,-64.11100006103516 -46.15999984741211,-64.11100006103516 C-46.15999984741211,-64.11100006103516 46.15999984741211,43.236000061035156 46.15999984741211,43.236000061035156 C46.15999984741211,43.236000061035156 3.296999931335449,64.11100006103516 3.296999931335449,64.11100006103516z"/></g><g opacity="1" transform="matrix(1,0,0,1,645.4520263671875,598.5079956054688)"><path fill="rgb(253,207,46)" fill-opacity="1" d=" M57.707000732421875,72.60900115966797 C57.707000732421875,72.60900115966797 22.240999221801758,103.51699829101562 22.240999221801758,103.51699829101562 C22.240999221801758,103.51699829101562 -57.70600128173828,-103.51699829101562 -57.70600128173828,-103.51699829101562 C-57.70600128173828,-103.51699829101562 57.707000732421875,72.60900115966797 57.707000732421875,72.60900115966797z"/></g><g opacity="1" transform="matrix(1,0,0,1,443.8800048828125,509.0769958496094)"><path fill="rgb(253,207,46)" fill-opacity="1" d=" M223.8179931640625,192.9320068359375 C223.8179931640625,192.9320068359375 143.86599731445312,-14.086999893188477 143.86599731445312,-14.086999893188477 C143.86599731445312,-14.086999893188477 0.07500000298023224,-233.51699829101562 0.07500000298023224,-233.51699829101562 C0.07500000298023224,-233.51699829101562 0.07500000298023224,-233.7480010986328 0.07500000298023224,-233.7480010986328 C0.07500000298023224,-233.7480010986328 0,-233.6320037841797 0,-233.6320037841797 C0,-233.6320037841797 -0.07599999755620956,-233.7480010986328 -0.07599999755620956,-233.7480010986328 C-0.11800000071525574,-233.6060028076172 -0.1589999943971634,-233.46499633789062 -0.20200000703334808,-233.32400512695312 C-0.20200000703334808,-233.32400512695312 -143.86599731445312,-14.086999893188477 -143.86599731445312,-14.086999893188477 C-143.86599731445312,-14.086999893188477 -223.8179931640625,192.9320068359375 -223.8179931640625,192.9320068359375 C-223.8179931640625,192.9320068359375 -206.98800659179688,196.01400756835938 -206.98800659179688,196.01400756835938 C-206.98800659179688,196.01400756835938 -0.09000000357627869,233.7169952392578 -0.09000000357627869,233.7169952392578 C-0.08500000089406967,233.72799682617188 -0.07999999821186066,233.73800659179688 -0.07599999755620956,233.7469940185547 C-0.07599999755620956,233.7469940185547 0,233.73399353027344 0,233.73399353027344 C0,233.73399353027344 0.07500000298023224,233.7469940185547 0.07500000298023224,233.7469940185547 C0.07500000298023224,233.7469940185547 0.07500000298023224,233.7209930419922 0.07500000298023224,233.7209930419922 C0.07500000298023224,233.7209930419922 206.98800659179688,196.01400756835938 206.98800659179688,196.01400756835938 C206.98800659179688,196.01400756835938 223.8179931640625,192.9320068359375 223.8179931640625,192.9320068359375z"/></g><g opacity="1" transform="matrix(1,0,0,1,443.8789978027344,199.5019989013672)"><path fill="rgb(253,207,46)" fill-opacity="1" d=" M0.07599999755620956,75.75399780273438 C0.07599999755620956,75.75399780273438 49.38199996948242,51.742000579833984 49.38199996948242,51.742000579833984 C49.38199996948242,51.742000579833984 0.07599999755620956,-75.4530029296875 0.07599999755620956,-75.4530029296875 C0.07599999755620956,-75.4530029296875 0.07599999755620956,-75.81099700927734 0.07599999755620956,-75.81099700927734 C0.07599999755620956,-75.81099700927734 0.0689999982714653,-75.8270034790039 0.0689999982714653,-75.8270034790039 C0.0689999982714653,-75.8270034790039 0.0010000000474974513,-75.64900207519531 0.0010000000474974513,-75.64900207519531 C0.0010000000474974513,-75.64900207519531 -0.0689999982714653,-75.8270034790039 -0.0689999982714653,-75.8270034790039 C-0.0689999982714653,-75.8270034790039 -0.07500000298023224,-75.81099700927734 -0.07500000298023224,-75.81099700927734 C-0.11599999666213989,-75.58699798583984 -0.1509999930858612,-75.3759994506836 -0.19200000166893005,-75.1520004272461 C-0.19200000166893005,-75.1520004272461 -49.38199996948242,51.742000579833984 -49.38199996948242,51.742000579833984 C-49.38199996948242,51.742000579833984 -0.11100000143051147,75.73699951171875 -0.11100000143051147,75.73699951171875 C-0.0989999994635582,75.76599884033203 -0.08799999952316284,75.7979965209961 -0.07500000298023224,75.8270034790039 C-0.07500000298023224,75.8270034790039 0.0010000000474974513,75.79100036621094 0.0010000000474974513,75.79100036621094 C0.0010000000474974513,75.79100036621094 0.07599999755620956,75.8270034790039 0.07599999755620956,75.8270034790039 C0.07599999755620956,75.8270034790039 0.07599999755620956,75.75399780273438 0.07599999755620956,75.75399780273438z"/></g><g opacity="1" transform="matrix(1,0,0,1,555.7479858398438,738.989013671875)"><path fill="rgb(253,207,46)" fill-opacity="1" d=" M-111.93800354003906,4.019999980926514 C-111.93800354003906,4.019999980926514 111.94400024414062,-36.9640007019043 111.94400024414062,-36.9640007019043 C111.94400024414062,-36.9640007019043 91.64900207519531,36.9640007019043 91.64900207519531,36.9640007019043 C91.64900207519531,36.9640007019043 -111.94400024414062,4.178999900817871 -111.94400024414062,4.178999900817871 C-111.94400024414062,4.178999900817871 -111.94400024414062,4.019000053405762 -111.94400024414062,4.019000053405762 C-111.94400024414062,4.019000053405762 -111.93800354003906,4.019999980926514 -111.93800354003906,4.019999980926514z"/></g><g opacity="1" transform="matrix(1,0,0,1,443.8800048828125,811.1420288085938)"><path fill="rgb(253,172,46)" fill-opacity="1" d=" M0.07500000298023224,-67.9219970703125 C0.07500000298023224,-67.9219970703125 0.07500000298023224,-67.94499969482422 0.07500000298023224,-67.94499969482422 C0.07500000298023224,-67.94499969482422 0,-67.93399810791016 0,-67.93399810791016 C0,-67.93399810791016 -0.07599999755620956,-67.94499969482422 -0.07599999755620956,-67.94499969482422 C-0.08100000023841858,-67.93699645996094 -0.08500000089406967,-67.9280014038086 -0.09099999815225601,-67.91899871826172 C-0.09099999815225601,-67.91899871826172 -203.51800537109375,-35.18899917602539 -203.51800537109375,-35.18899917602539 C-203.51800537109375,-35.18899917602539 -2.2809998989105225,67.94499969482422 -2.2809998989105225,67.94499969482422 C-2.2809998989105225,67.94499969482422 2.2809998989105225,67.94499969482422 2.2809998989105225,67.94499969482422 C2.2809998989105225,67.94499969482422 203.51800537109375,-35.18899917602539 203.51800537109375,-35.18899917602539 C203.51800537109375,-35.18899917602539 0.07500000298023224,-67.9219970703125 0.07500000298023224,-67.9219970703125z"/></g><g opacity="1" transform="matrix(1,0,0,1,546.7789916992188,827.52001953125)"><path fill="rgb(253,128,46)" fill-opacity="1" d=" M100.61799621582031,-51.56800079345703 C100.61799621582031,-51.56800079345703 77.85299682617188,31.45400047302246 77.85299682617188,31.45400047302246 C77.85299682617188,31.45400047302246 -100.61900329589844,51.56800079345703 -100.61900329589844,51.56800079345703 C-100.61900329589844,51.56800079345703 100.61799621582031,-51.56800079345703 100.61799621582031,-51.56800079345703z"/></g><g opacity="1" transform="matrix(1,0,0,1,704.9990234375,817.427978515625)"><path fill="rgb(253,226,46)" fill-opacity="1" d=" M-57.441001892089844,-41.44900131225586 C-57.441001892089844,-41.44900131225586 80.36599731445312,-19.277000427246094 80.36599731445312,-19.277000427246094 C80.36599731445312,-19.277000427246094 -80.36599731445312,41.44900131225586 -80.36599731445312,41.44900131225586 C-80.36599731445312,41.44900131225586 -57.441001892089844,-41.44900131225586 -57.441001892089844,-41.44900131225586z"/></g><g opacity="1" transform="matrix(1,0,0,1,602.0029907226562,331.8909912109375)"><path fill="rgb(253,249,99)" fill-opacity="1" d=" M-65.87799835205078,-101.52100372314453 C-65.87799835205078,-101.52100372314453 108.74099731445312,101.52100372314453 108.74099731445312,101.52100372314453 C108.74099731445312,101.52100372314453 -108.74199676513672,-80.64600372314453 -108.74199676513672,-80.64600372314453 C-108.74199676513672,-80.64600372314453 -65.87799835205078,-101.52100372314453 -65.87799835205078,-101.52100372314453z"/></g><g opacity="1" transform="matrix(1,0,0,1,734.5130004882812,552.52001953125)"><path fill="rgb(253,249,99)" fill-opacity="1" d=" M31.177000045776367,64.64399719238281 C31.177000045776367,64.64399719238281 31.354000091552734,66.03099822998047 31.354000091552734,66.03099822998047 C31.354000091552734,66.03099822998047 -31.354000091552734,118.59700012207031 -31.354000091552734,118.59700012207031 C-31.354000091552734,118.59700012207031 -31.354000091552734,118.59600067138672 -31.354000091552734,118.59600067138672 C-31.354000091552734,118.59600067138672 -23.472999572753906,-118.59700012207031 -23.472999572753906,-118.59700012207031 C-23.472999572753906,-118.59700012207031 31.177000045776367,64.64399719238281 31.177000045776367,64.64399719238281z"/></g><g opacity="1" transform="matrix(1,0,0,1,602.1500244140625,461.17999267578125)"><path fill="rgb(253,226,46)" fill-opacity="1" d=" M108.59400177001953,-27.768999099731445 C108.59400177001953,-27.768999099731445 108.88899993896484,-27.256999969482422 108.88899993896484,-27.256999969482422 C108.88899993896484,-27.256999969482422 101.00800323486328,209.93499755859375 101.00800323486328,209.93499755859375 C101.00800323486328,209.93499755859375 -14.404999732971191,33.81100082397461 -14.404999732971191,33.81100082397461 C-14.404999732971191,33.81100082397461 -108.88899993896484,-209.93600463867188 -108.88899993896484,-209.93600463867188 C-108.88899993896484,-209.93600463867188 108.59400177001953,-27.768999099731445 108.59400177001953,-27.768999099731445z"/></g><g opacity="1" transform="matrix(1,0,0,1,515.7739868164062,373.1180114746094)"><path fill="rgb(253,207,46)" fill-opacity="1" d=" M-71.97000122070312,-97.78800201416016 C-71.97000122070312,-97.78800201416016 -22.51300048828125,-121.87200164794922 -22.51300048828125,-121.87200164794922 C-22.51300048828125,-121.87200164794922 71.97100067138672,121.87200164794922 71.97100067138672,121.87200164794922 C71.97100067138672,121.87200164794922 -71.97000122070312,-97.78800201416016 -71.97000122070312,-97.78800201416016z"/></g></g><g class="1 1" transform="matrix(0.0999973937869072,0.0007212540367618203,-0.0007212540367618203,0.0999973937869072,64.97185516357422,61.355323791503906)" opacity="1" style="display: none;"><g opacity="1" transform="matrix(1,0,0,1,0,0)"><path fill="rgb(255,253,201)" fill-opacity="1" d=" M-174.61199951171875,-22.284000396728516 C-174.61199951171875,-22.284000396728516 -176.14100646972656,-24.76300048828125 -176.14100646972656,-24.76300048828125 C-176.14100646972656,-24.76300048828125 -319.75,160.95799255371094 -319.75,160.95799255371094 C-319.75,160.95799255371094 -317.9079895019531,196.9969940185547 -317.9079895019531,196.9969940185547 C-317.9079895019531,196.9969940185547 -175.78500366210938,-22.917999267578125 -175.78500366210938,-22.917999267578125 C-175.78500366210938,-22.917999267578125 -174.61199951171875,-22.284000396728516 -174.61199951171875,-22.284000396728516z"/></g></g><g class="2 2" transform="matrix(0.09999619424343109,0.000872635398991406,-0.000872635398991406,0.09999619424343109,64.98271179199219,60.823486328125)" opacity="1" style="display: block;"><g opacity="1" transform="matrix(1,0,0,1,0,0)"><path fill="rgb(255,242,199)" fill-opacity="1" d=" M263.7879943847656,199.23300170898438 C263.7879943847656,199.23300170898438 218.0330047607422,265.29901123046875 218.0330047607422,265.29901123046875 C218.0330047607422,265.29901123046875 217.4739990234375,265.5840148925781 217.4739990234375,265.5840148925781 C217.4739990234375,265.5840148925781 217.42599487304688,265.9339904785156 217.42599487304688,265.9339904785156 C217.42599487304688,265.9339904785156 283.9159851074219,253.552001953125 283.9159851074219,253.552001953125 C283.9159851074219,253.552001953125 284.37298583984375,253.60499572753906 284.37298583984375,253.60499572753906 C284.37298583984375,253.60499572753906 263.9679870605469,199.84500122070312 263.9679870605469,199.84500122070312 C263.9679870605469,199.84500122070312 263.7879943847656,199.23300170898438 263.7879943847656,199.23300170898438z"/></g></g><g class="3 3" transform="matrix(0.0999997928738594,0.00020593059889506549,-0.00020593059889506549,0.0999997928738594,64.9970703125,60.257789611816406)" opacity="1" style="display: block;"><g opacity="1" transform="matrix(1,0,0,1,0,0)"><path fill="rgb(252,255,125)" fill-opacity="1" d=" M68.4749984741211,-303.47100830078125 C68.4749984741211,-303.47100830078125 99,-221 99,-221 C99,-221 159.0249481201172,-67.12236022949219 159.0249481201172,-67.12236022949219 C159.0249481201172,-67.12236022949219 160.40847778320312,-66.33014678955078 160.40847778320312,-66.33014678955078 C160.40847778320312,-66.33014678955078 142.9829559326172,-240.75906372070312 142.9829559326172,-240.75906372070312 C142.9829559326172,-240.75906372070312 142.8539581298828,-240.8668212890625 142.8539581298828,-240.8668212890625 C142.8539581298828,-240.8668212890625 68.4749984741211,-303.47100830078125 68.4749984741211,-303.47100830078125z"/></g></g><g class="4 4" transform="matrix(0.09999796003103256,-0.0006401849677786231,0.0006401849677786231,0.09999796003103256,65.01529693603516,58.51200485229492)" opacity="1" style="display: none;"><g opacity="1" transform="matrix(1,0,0,1,0,0)"><path fill="rgb(251,235,130)" fill-opacity="1" d=" M407,147 C407,147 392.25799560546875,158.30299377441406 392.25799560546875,158.30299377441406 C392.25799560546875,158.30299377441406 410.1099853515625,338.1310119628906 410.1099853515625,338.1310119628906 C410.1099853515625,338.1310119628906 433,369.7460021972656 433,369.7460021972656 C433,369.7460021972656 407,147 407,147z"/></g></g><g transform="matrix(0.12688778340816498,-0.4885134696960449,0.4885134696960449,0.12688778340816498,46.95308303833008,116.89242553710938)" opacity="0.4961044773302301" style="display: block;"><g opacity="1" transform="matrix(1,0,0,1,0,0)"><path fill="rgb(255,255,255)" fill-opacity="1" d=" M59.625,-53.375 C59.625,-53.375 59.99300003051758,-47.981998443603516 61.61399841308594,-46.097999572753906 C63.07600021362305,-44.39899826049805 68.875,-44.25 68.875,-44.25 C68.875,-44.25 63.46099853515625,-43.130001068115234 61.941001892089844,-41.69499969482422 C60.46099853515625,-40.297000885009766 60.25,-34.75 60.25,-34.75 C60.25,-34.75 60.01900100708008,-40.20800018310547 58.090999603271484,-41.624000549316406 C55.93600082397461,-43.20800018310547 50.625,-43.75 50.625,-43.75 C50.625,-43.75 55.30400085449219,-43.499000549316406 57.63399887084961,-45.48899841308594 C59.78300094604492,-47.32500076293945 59.625,-53.375 59.625,-53.375z"/></g></g><g transform="matrix(0.9097842574119568,-0.14184227585792542,0.14184227585792542,0.9097842574119568,38.10873031616211,118.82402038574219)" opacity="0.8736701304839204" style="display: block;"><g opacity="1" transform="matrix(1,0,0,1,0,0)"><path fill="rgb(255,255,255)" fill-opacity="1" d=" M59.625,-53.375 C59.625,-53.375 59.99300003051758,-47.981998443603516 61.61399841308594,-46.097999572753906 C63.07600021362305,-44.39899826049805 68.875,-44.25 68.875,-44.25 C68.875,-44.25 63.46099853515625,-43.130001068115234 61.941001892089844,-41.69499969482422 C60.46099853515625,-40.297000885009766 60.25,-34.75 60.25,-34.75 C60.25,-34.75 60.01900100708008,-40.20800018310547 58.090999603271484,-41.624000549316406 C55.93600082397461,-43.20800018310547 50.625,-43.75 50.625,-43.75 C50.625,-43.75 55.30400085449219,-43.499000549316406 57.63399887084961,-45.48899841308594 C59.78300094604492,-47.32500076293945 59.625,-53.375 59.625,-53.375z"/></g></g></g></svg>