<svg xmlns="http://www.w3.org/2000/svg" fill="#b1bad3" viewBox="0 0 96 96" class="svg-icon " style=""> <title/> <path fill-rule="evenodd" clip-rule="evenodd" d="M48.04 8c4.72.08 8.96.52 13 2.4v20.68h-26V10.4c3.96-1.88 8.28-2.32 13-2.4Zm-6.76 41.96h14.88l.04-.04 6.2 9.52L76 52.8v12.88c-.08 1.36-.28 2.6-.6 3.76C72.36 80.32 58.92 87.92 48 87.92c-10.92 0-24.36-7.56-27.4-18.48-.32-1.16-.56-2.4-.6-3.76V50.36l14.92 8.6 6.36-9Zm0 17.24h14.16c1.56-.4 1.68-2.4 1.68-2.4l-3.32-6.08H43.24l-3.72 6.56c.56 1.28 1.76 1.92 1.76 1.92Zm-11.6-54.36h-.08c-1.56.76-4.08 2.56-5.6 4.24-1.8 1.76-3.96 4.48-3.96 7.32v21.12l9.64-6.84V12.84Zm41.966 3.915c.137.11.27.218.395.325l.04.04c1.76 1.76 3.96 4.48 3.96 7.32v21.4l-9.76-6.56V12.84c1.68.84 3.48 2.32 4.84 3.48.178.155.355.298.525.435Z"/></svg>