<svg xmlns="http://www.w3.org/2000/svg" fill="#b1bad3" viewBox="0 0 96 96" class="svg-icon " style=""> <title/> <path d="M62.8 7.2h-1.2L48 12 34.401 7.2c-2.4-.8-5.199.801-5.6 3.6v10c0 2.798 2.4 4.8 4.8 4.8h1.2l13.2-6 13.598 6c2.8.8 5.2-.802 6-3.6V12c0-2.799-2.4-4.8-4.8-4.8ZM41.199 82.8l-18-60c-1.2-2.4-3.6-3.6-6.399-2.799l-6 2.001c-2.001.4-3.201 2.4-3.201 4.401l-3.6 57.6c0 2.8 2.001 4.8 4.401 5.2h27.999c2.799 0 4.8-2.002 4.8-4.8.399-.4 0-1.204 0-1.603Zm47.202-56.4c0-2-1.2-3.6-3.2-4.4l-6-2.4c-2.4-.802-5.2.398-6 2.798l-18 60c-.802 2.4.8 5.2 3.2 6 .4 0 .801.4 1.6.4h27.6c2.798 0 4.8-2.002 4.8-4.8l-4-57.598Z"/></svg>