<svg xmlns="http://www.w3.org/2000/svg" fill="#b1bad3" viewBox="0 0 64 64" class="svg-icon " style=""> <title/> <path fill-rule="evenodd" clip-rule="evenodd" d="m57.742 15.508 5.547 5.548a2.4 2.4 0 0 1 .712 1.71 2.4 2.4 0 0 1-.712 1.708l-8.846 8.846L30.694 9.571 39.59.725A2.4 2.4 0 0 1 41.3.014a2.4 2.4 0 0 1 1.708.711l5.498 5.548a6.532 6.532 0 0 0 9.236 9.236ZM.738 39.529 27.395 12.87l23.747 23.747-26.657 26.657a2.4 2.4 0 0 1-1.71.712 2.4 2.4 0 0 1-1.709-.712l-5.547-5.547a6.532 6.532 0 0 0-9.236-9.236L.736 42.994a2.407 2.407 0 0 1 .002-3.466Z"/></svg>