<svg xmlns="http://www.w3.org/2000/svg" fill="#b1bad3" viewBox="0 0 96 96" class="svg-icon " style=""> <title/> <path fill-rule="evenodd" clip-rule="evenodd" d="M8.49 43.14C11.028 21.253 29.568 4.244 52.118 4.114v-.003C76.356 4.115 96 23.762 96 48c0 24.237-19.647 43.888-43.888 43.888-11.02 0-21.087-4.06-28.742-10.722l8.712-10.036a30.4 30.4 0 0 0 19.991 7.459c16.853 0 30.517-13.664 30.517-30.517S68.925 17.556 52.073 17.556c-15.184 0-27.779 11.089-30.149 25.788h7.83L14.856 64.425 0 43.345h8.472l.018-.206Zm23.592 27.99v-.001l-.036-.03.036.03Zm13.367-20.357v-21.4h13.333v15.862l12.205 12.206-9.435 9.435L45.45 50.773Z"/></svg>