<svg xmlns="http://www.w3.org/2000/svg" fill="#b1bad3" viewBox="0 0 64 64" class="svg-icon " style=""> <title/> <path fill-rule="evenodd" clip-rule="evenodd" d="M31.943 13.08c-9.37 0-17.128 6.904-18.476 16.004l4.798-.002-9.146 12.96-9.12-12.96h5.334l.012-.124C6.889 15.536 18.291 5.112 32.127 5.112a26.823 26.823 0 0 1 17.5 6.452l-5.334 6.186.02.018a18.584 18.584 0 0 0-12.37-4.688Zm22.937 8.752L64 34.792h-5.174l-.01.12C57.332 48.398 45.902 58.888 32.02 58.888a26.826 26.826 0 0 1-17.646-6.576l5.334-6.186a18.597 18.597 0 0 0 12.47 4.776c9.406 0 17.188-6.96 18.49-16.11h-4.934l9.146-12.96ZM19.708 46.126l-.016-.014.016.014Z"/></svg>