<svg xmlns="http://www.w3.org/2000/svg" fill="#b1bad3" viewBox="0 0 96 96" class="svg-icon " style=""> <title/> <path d="M93.464 40.584v38.398C93.464 88.146 85.61 96 76.446 96H45.464c-4.362 0-8.728-1.744-12.217-5.236L21.031 78.547 4.448 61.094c-2.618-3.053-2.618-7.42.435-10.037 2.618-2.183 6.11-2.619 8.728-.874l15.71 10.908V6.545C29.754 3.053 32.372 0 35.864 0s6.546 3.053 6.546 6.545v34.471h4.362v-4.362c0-3.492 3.054-6.546 6.545-6.546 3.492 0 6.546 3.054 6.546 6.546v4.362h4.362c.436-3.492 3.492-6.11 6.98-5.671 3.054.435 5.672 2.618 5.672 5.671h4.363c.435-3.492 3.492-6.11 6.98-5.671 2.618-.436 5.237 2.618 5.237 5.236l.006.003ZM69.463 9.167c0-5.237-3.928-9.164-9.164-9.164s-9.163 3.927-9.163 8.728 3.927 9.164 9.163 9.164c4.801 0 9.164-3.927 9.164-8.728Zm-47.997 0c0-5.237-3.927-9.164-9.164-9.164-4.8 0-9.163 3.927-9.163 8.728s3.927 9.164 9.163 9.164c4.801 0 9.164-3.927 9.164-8.728Zm0 22.254c0-4.801-3.927-9.164-9.164-9.164-5.236 0-9.163 4.363-9.163 9.164 0 4.8 3.927 9.163 9.163 9.163 4.801 0 9.164-3.927 9.164-9.163Z"/></svg>