<svg xmlns="http://www.w3.org/2000/svg" fill="white" viewBox="0 0 64 64" class="svg-icon " style=""> <title/> <path fill-rule="evenodd" clip-rule="evenodd" d="M22.8 8.547h36.774c0 .028.026.054.026.054h-.016a6.75 6.75 0 0 0-6.384 6.586v33.04l-.002-.02a6.8 6.8 0 0 1-6.786 7.246 6.8 6.8 0 0 1-6.786-7.226v-3.094H16V15.347a6.8 6.8 0 0 1 6.8-6.8Zm-.828 27.894h15.494V31.8H21.972v4.64Zm.002-12.4h24.8V19.4h-24.8v4.64Zm38.052-13.574h-.052A3.974 3.974 0 0 0 56 14.44v6.426h8V14.44a3.974 3.974 0 0 0-3.974-3.974ZM36.8 48.256H0a6.8 6.8 0 0 0 6.8 6.8h34.026c-2.694 0-4.026-3.04-4.026-6.8Z"/></svg>