<svg xmlns="http://www.w3.org/2000/svg" fill="#2f4553" viewBox="0 0 64 64" class="svg-icon " style=""> <title/> <path d="M55.441 32a26.082 26.082 0 0 0-.34-3.99l.02.15 8.16-6-7.12-12.32-9.254 4.054a23.83 23.83 0 0 0-6.502-3.784l-.164-.056L39.121 0h-14.24l-1.12 10.054c-2.554.98-4.76 2.276-6.71 3.874l.042-.034L7.84 9.84.72 22.16l8.16 6a25.007 25.007 0 0 0-.32 3.828V32c.012 1.366.128 2.694.34 3.99l-.02-.15-8.16 6 7.12 12.32 9.254-4.054a23.83 23.83 0 0 0 6.502 3.784l.164.056L24.88 64h14.24l1.12-10.054c2.554-.98 4.76-2.276 6.71-3.874l-.042.034 9.254 4.054 7.12-12.32-8.16-6c.192-1.146.308-2.474.32-3.828V32Zm-23.44 8.666A8.666 8.666 0 1 1 40.667 32c-.016 4.78-3.886 8.652-8.666 8.666H32h.002Z"/></svg>