<svg xmlns="http://www.w3.org/2000/svg" fill="#b1bad3" viewBox="0 0 96 96" class="svg-icon " style=""> <title/> <path fill-rule="evenodd" clip-rule="evenodd" d="M56.8 47.08a49.761 49.761 0 0 0-5.6 22.8v5H32.32a55.56 55.56 0 0 1 5-22.76A86.916 86.916 0 0 1 50.8 31h-28V16.36H72v7.76a133.838 133.838 0 0 0-15.2 22.96Zm26.4 16.24a30.56 30.56 0 0 0-6 13.04l-.6 3L60 76.32a38.12 38.12 0 0 1 13.36-22.28l-12-2.36 5.04-10.64L96 46.88l-.92 4.64a85.487 85.487 0 0 0-11.88 11.8Zm-58.52 9.32a30.08 30.08 0 0 1 0-14.36 79.675 79.675 0 0 1 5.8-15.84l-1.12-4.6L0 44.88v11.68l12-2.84a37.88 37.88 0 0 0-2.88 25.92l16.28-4-.72-3Z"/></svg>