<svg xmlns="http://www.w3.org/2000/svg" fill="#b1bad3" viewBox="0 0 96 96" class="svg-icon " style=""> <title/> <path d="M48 0C21.48 0 0 21.48 0 48s21.48 48 48 48 48-21.48 48-48S74.52 0 48 0ZM18.52 74.96C12 67.84 8 58.4 8 48c0-1.52.12-3 .28-4.48l6.52 2.12c-.04.8-.12 1.56-.12 2.36 0 8.2 2.96 15.68 7.84 21.48l-4 5.48Zm1.2-44.56-6.48-2.12C18.84 18.4 28.52 11.12 40 8.8v6.88A33.453 33.453 0 0 0 19.72 30.4ZM48 88c-5.92 0-11.48-1.32-16.56-3.64l4-5.52c3.88 1.56 8.12 2.48 12.56 2.48 4.44 0 8.68-.88 12.56-2.48l4 5.52A39.487 39.487 0 0 1 48 88Zm-8.12-23.36 6.44-6.44c.92-.92 2.44-.92 3.4 0l6.44 6.44c.76.76.24 2.04-.84 2.04H40.76c-1.08 0-1.6-1.28-.84-2.04h-.04Zm28.6-15.44-6.8 6.8c-.92.92-2.44.92-3.4 0l-8.6-8.6c-.92-.92-2.44-.92-3.4 0l-8.6 8.6c-.92.92-2.44.92-3.4 0l-6.8-6.8c-.92-.92-.92-2.44 0-3.4L46.28 27c.92-.92 2.44-.92 3.4 0l18.8 18.8c.92.92.92 2.44 0 3.4ZM56 15.68V8.8c11.48 2.32 21.16 9.6 26.76 19.48l-6.48 2.12C71.76 23.16 64.52 17.76 56 15.68Zm21.48 59.28-4-5.48c4.88-5.8 7.84-13.28 7.84-21.48 0-.8-.08-1.6-.12-2.36l6.52-2.12C87.88 45 88 46.48 88 48c0 10.4-4 19.84-10.52 26.96Z"/></svg>