<svg xmlns="http://www.w3.org/2000/svg" fill="#b1bad3" viewBox="0 0 64 64" class="svg-icon " style=""> <title/> <path d="M7.36 42.39c1-12.78 14.728-25.29 17.926-29.976 2.778-4.206 1.719-9.203.83-11.4a.78.78 0 0 1 .893-1h-.004c13.889 2.918 14.588 13.48 14.168 18.206-.42 4.726.42 7.913 3.478 7.224 3.057-.69 2.028-8.443 2.028-8.443s14.039 16.676 8.893 33.073c-2.588 8.574-9.033 12.19-14.449 13.89-.28.14-.56-.14-.56-.55.7-2.638 2.509-4.726 3.058-7.644 1.12-4.796-3.327-9.213-6.624-11.71-2.063-1.538-3.386-3.97-3.386-6.712 0-.127.002-.255.008-.381v.018c0-.28-.42-.42-.55-.28a90.106 90.106 0 0 1-6.652 7.202l-.022.022c-5.136 5.696-7.784 12.09-3.197 19.175.14.28-.14.69-.41.56C11.387 60.596 6.67 51.973 7.36 42.39Z"/></svg>