<?xml version="1.0" encoding="UTF-8"?>
<!DOCTYPE svg PUBLIC "-//W3C//DTD SVG 1.1//EN" "http://www.w3.org/Graphics/SVG/1.1/DTD/svg11.dtd">
<svg xmlns="http://www.w3.org/2000/svg" version="1.1" width="224px" height="361px" style="shape-rendering:geometricPrecision; text-rendering:geometricPrecision; image-rendering:optimizeQuality; fill-rule:evenodd; clip-rule:evenodd" xmlns:xlink="http://www.w3.org/1999/xlink">
<g><path style="opacity:1" fill="#027bff" d="M 6.5,3.5 C 76.5008,3.33334 146.501,3.5 216.5,4C 217.416,4.37424 218.25,4.87424 219,5.5C 219.667,121.833 219.667,238.167 219,354.5C 218.5,355 218,355.5 217.5,356C 147.167,356.667 76.8333,356.667 6.5,356C 5.58377,355.626 4.75044,355.126 4,354.5C 3.33333,238.167 3.33333,121.833 4,5.5C 4.9947,4.93406 5.82803,4.26739 6.5,3.5 Z"/></g>
<g><path style="opacity:1" fill="#fbfdff" d="M 9.5,9.5 C 14.1225,8.40815 15.9558,10.0748 15,14.5C 10.3252,16.334 8.49189,14.6673 9.5,9.5 Z"/></g>
<g><path style="opacity:1" fill="#fbfdff" d="M 208.5,9.5 C 210.167,9.5 211.833,9.5 213.5,9.5C 214.508,14.6673 212.675,16.334 208,14.5C 207.36,12.735 207.527,11.0683 208.5,9.5 Z"/></g>
<g><path style="opacity:1" fill="#a4d9fc" d="M 108.5,65.5 C 111.482,65.1044 114.149,65.7711 116.5,67.5C 123.5,80.8148 129.333,94.4815 134,108.5C 132.844,109.993 132.01,109.826 131.5,108C 126.137,95.4413 120.637,82.9413 115,70.5C 112.667,67.8333 110.333,67.8333 108,70.5C 92,105.833 76,141.167 60,176.5C 57.8521,180.811 58.0188,184.977 60.5,189C 59.255,192.159 58.0884,191.993 57,188.5C 56.3333,184.5 56.3333,180.5 57,176.5C 71.7764,144.716 86.1097,112.716 100,80.5C 102.354,75.1126 105.188,70.1126 108.5,65.5 Z"/></g>
<g><path style="opacity:1" fill="#eef3ff" d="M 153.5,81.5 C 160.328,90.5132 167.828,99.1799 176,107.5C 178.827,112.32 177.66,115.32 172.5,116.5C 172.799,114.027 173.799,111.86 175.5,110C 174.224,107.719 172.557,105.719 170.5,104C 161.588,103.184 152.755,103.35 144,104.5C 144.712,101.053 146.045,97.7192 148,94.5C 148.465,95.9308 149.299,97.0975 150.5,98C 155.5,98.6667 160.5,98.6667 165.5,98C 162.462,95.2974 159.795,92.2974 157.5,89C 155.253,87.3452 152.92,87.0119 150.5,88C 151.914,86.0065 152.914,83.8398 153.5,81.5 Z"/></g>
<g><path style="opacity:1" fill="#f2f6ff" d="M 142.5,110.5 C 147.731,112.115 152.731,114.282 157.5,117C 160.025,117.896 162.192,117.396 164,115.5C 162.951,119.618 161.284,123.618 159,127.5C 158.837,125.324 158.004,123.491 156.5,122C 151.844,119.422 147.011,117.255 142,115.5C 139.347,116.153 137.68,117.82 137,120.5C 136.477,115.88 138.31,112.547 142.5,110.5 Z"/></g>
<g><path style="opacity:1" fill="#f1f5ff" d="M 136.5,122.5 C 140.722,126.627 145.722,129.794 151.5,132C 153.464,132.624 155.131,132.124 156.5,130.5C 156.152,134.321 154.652,137.988 152,141.5C 151.654,139.152 150.487,137.319 148.5,136C 144.833,134.333 141.167,132.667 137.5,131C 135.559,130.257 133.726,130.424 132,131.5C 131.666,129.153 131.833,126.819 132.5,124.5C 134.483,124.843 135.817,124.176 136.5,122.5 Z"/></g>
<g><path style="opacity:1" fill="#eef3ff" d="M 129.5,139.5 C 142.267,138.101 147.767,143.767 146,156.5C 141.436,165.68 134.603,167.847 125.5,163C 119.136,153.754 120.47,145.921 129.5,139.5 Z"/></g>
<g><path style="opacity:1" fill="#177dff" d="M 127.5,143.5 C 134.562,143.115 140.062,145.782 144,151.5C 145.328,157.673 142.828,160.673 136.5,160.5C 129.467,160.151 124.8,156.651 122.5,150C 123.283,147.062 124.95,144.896 127.5,143.5 Z"/></g>
<g><path style="opacity:1" fill="#a6dbfc" d="M 159.5,167.5 C 160.5,167.5 161.5,167.5 162.5,167.5C 164.563,172.127 165.896,176.96 166.5,182C 166.497,186.01 165.664,189.844 164,193.5C 148.333,228.167 132.667,262.833 117,297.5C 113.333,301.5 109.667,301.5 106,297.5C 103.167,291.167 100.333,284.833 97.5,278.5C 98.5,277.167 99.5,277.167 100.5,278.5C 103.606,284.379 106.44,290.379 109,296.5C 110.667,297.833 112.333,297.833 114,296.5C 130.194,260.917 146.194,225.25 162,189.5C 163.457,185.259 163.791,180.926 163,176.5C 161.259,173.691 160.092,170.691 159.5,167.5 Z"/></g>
<g><path style="opacity:1" fill="#f1f5ff" d="M 114.5,167.5 C 120.785,169.387 126.951,171.72 133,174.5C 134.393,173.385 135.893,172.885 137.5,173C 135.539,176.421 133.706,179.921 132,183.5C 131.727,181.671 130.893,180.171 129.5,179C 124.844,176.422 120.011,174.255 115,172.5C 109.185,175.955 109.019,179.788 114.5,184C 117.96,186.065 121.626,187.565 125.5,188.5C 127.374,188.61 128.874,187.944 130,186.5C 128.951,190.618 127.284,194.618 125,198.5C 124.64,196.579 123.806,194.912 122.5,193.5C 117.94,190.802 113.107,188.802 108,187.5C 103.025,189.327 102.192,192.494 105.5,197C 109.007,199.254 112.673,201.254 116.5,203C 118.809,203.756 120.809,203.256 122.5,201.5C 122.833,201.833 123.167,202.167 123.5,202.5C 121.572,205.788 119.739,209.121 118,212.5C 117.727,210.671 116.893,209.171 115.5,208C 111.5,206 107.5,204 103.5,202C 100.975,201.104 98.8083,201.604 97,203.5C 97.3594,200.888 97.8594,198.221 98.5,195.5C 99.8333,195.5 101.167,195.5 102.5,195.5C 101.247,188.842 103.58,184.008 109.5,181C 108.541,178.88 108.374,176.713 109,174.5C 110.666,172.004 112.5,169.671 114.5,167.5 Z"/></g>
<g><path style="opacity:1" fill="#f0f5ff" d="M 94.5,205.5 C 95.8333,205.5 97.1667,205.5 98.5,205.5C 98.5,206.833 98.5,208.167 98.5,209.5C 93.5277,209.952 92.5277,212.119 95.5,216C 101.074,220.33 107.074,222.497 113.5,222.5C 111.829,225.842 110.162,229.176 108.5,232.5C 107.866,230.433 106.866,228.6 105.5,227C 100.953,224.56 96.2867,222.393 91.5,220.5C 90.5,221.167 89.5,221.833 88.5,222.5C 87.8967,220.548 88.23,218.548 89.5,216.5C 90.325,215.614 91.325,215.281 92.5,215.5C 92.1524,211.915 92.819,208.582 94.5,205.5 Z"/></g>
<g><path style="opacity:1" fill="#ecf2ff" d="M 101.5,242.5 C 101.5,243.167 101.167,243.5 100.5,243.5C 98.8073,240.318 96.1407,238.652 92.5,238.5C 92.2739,241.249 92.6072,243.916 93.5,246.5C 95.7288,248.553 98.0621,248.886 100.5,247.5C 101.167,247.5 101.5,247.833 101.5,248.5C 100.157,253.078 97.1568,254.578 92.5,253C 91.6667,252.167 90.8333,251.333 90,250.5C 90.1775,245.793 90.0109,241.126 89.5,236.5C 81.4542,233.212 79.1209,235.546 82.5,243.5C 81.7145,246.975 80.2145,247.308 78,244.5C 77.585,239.979 78.9184,235.979 82,232.5C 83.2991,231.02 84.9658,230.354 87,230.5C 91.7543,231.624 96.2543,233.458 100.5,236C 102.134,236.494 103.801,236.66 105.5,236.5C 105.345,231.9 106.012,231.567 107.5,235.5C 106.857,239.134 104.857,241.467 101.5,242.5 Z"/></g>
<g><path style="opacity:1" fill="#1a7eff" d="M 100.5,243.5 C 100.5,244.833 100.5,246.167 100.5,247.5C 98.0621,248.886 95.7288,248.553 93.5,246.5C 92.6072,243.916 92.2739,241.249 92.5,238.5C 96.1407,238.652 98.8073,240.318 100.5,243.5 Z"/></g>
<g><path style="opacity:1" fill="#9dbfff" d="M 101.5,242.5 C 102.833,244.5 102.833,246.5 101.5,248.5C 101.5,247.833 101.167,247.5 100.5,247.5C 100.5,246.167 100.5,244.833 100.5,243.5C 101.167,243.5 101.5,243.167 101.5,242.5 Z"/></g>
<g><path style="opacity:1" fill="#f4f7ff" d="M 60.5,242.5 C 61.0331,245.122 62.0331,247.622 63.5,250C 72.2653,254.717 81.2653,258.883 90.5,262.5C 92.7661,262.069 94.2661,260.736 95,258.5C 93.5616,264.398 91.2283,270.064 88,275.5C 87.9546,272.666 87.1213,270.166 85.5,268C 81.1373,266.052 76.8039,264.218 72.5,262.5C 70.5988,268.141 68.2654,273.641 65.5,279C 69.9414,283.369 75.2747,285.369 81.5,285C 82.4264,283.42 83.4264,282.92 84.5,283.5C 82,288.5 79.5,293.5 77,298.5C 76.9071,295.993 76.0738,293.826 74.5,292C 66.9549,288.061 59.2882,284.394 51.5,281C 47.2956,278.341 44.1289,279.175 42,283.5C 43.8874,277.711 46.3874,272.044 49.5,266.5C 48.7742,269.463 49.7742,271.963 52.5,274C 55.6061,275.636 58.7728,277.136 62,278.5C 63.221,277.728 64.221,276.728 65,275.5C 66.7659,270.802 68.9326,266.302 71.5,262C 67.4404,259.304 63.107,257.137 58.5,255.5C 56.6171,255.876 55.1171,256.876 54,258.5C 55.8391,253.138 58.0058,247.805 60.5,242.5 Z"/></g>
<g><path style="opacity:1" fill="#eaf3ff" d="M 10.5,344.5 C 15.3276,344.385 16.6609,346.552 14.5,351C 8.73774,351.418 7.4044,349.251 10.5,344.5 Z"/></g>
<g><path style="opacity:1" fill="#f3f8ff" d="M 208.5,344.5 C 213.328,344.385 214.661,346.552 212.5,351C 207.57,351.427 206.237,349.26 208.5,344.5 Z"/></g>
</svg>
