<svg xmlns="http://www.w3.org/2000/svg" fill="none" viewBox="0 0 96 96" class="svg-icon " style=""> <title/> <path d="M48 96c26.51 0 48-21.49 48-48S74.51 0 48 0 0 21.49 0 48s21.49 48 48 48Z" fill="#6CDE07"/><path d="M51.52 73.32v6.56h-5.8V73.4c-7.56-.6-13.08-3.56-16.92-7.64l4.72-6.56c2.84 3 6.96 5.68 12.2 6.48V51.64c-7.48-1.88-15.4-4.64-15.4-14.12 0-7.4 6.04-13.32 15.4-14.12v-6.68h5.8v6.84c5.96.6 10.84 2.92 14.6 6.56l-4.88 6.32c-2.68-2.68-6.12-4.36-9.76-5.08v12.52c7.56 2.04 15.72 4.88 15.72 14.6 0 7.4-4.8 13.8-15.72 14.84h.04Zm-5.8-30.96V31.04c-4.16.44-6.68 2.68-6.68 5.96 0 2.84 2.84 4.28 6.68 5.36ZM58.6 59.28c0-3.36-3-4.88-7.04-6.12v12.52c5-.72 7.04-3.64 7.04-6.4Z" fill="#1B3802"/></svg>