<svg xmlns="http://www.w3.org/2000/svg" fill="none" viewBox="0 0 96 96" class="svg-icon " style=""> <title/> <path d="M48 96c26.51 0 48-21.49 48-48S74.51 0 48 0 0 21.49 0 48s21.49 48 48 48Z" fill="#0F8FF8"/><path d="m62.16 58.76 7.28 3.72c-3.72 5.8-9.68 10.92-19.48 10.92-11.76 0-21.36-6.92-24.44-17.6h-3.8v-4.88h2.92c-.08-.88-.16-1.76-.16-2.6 0-.96.08-1.88.16-2.76h-2.92v-4.88h3.84c3.04-10.6 12.64-17.44 24.36-17.44 9.8 0 15.84 5.08 19.48 10.92l-7.28 3.72c-2.32-4-6.96-7.04-12.2-7.04-7 0-12.64 3.84-15.2 9.88h19.64v4.88h-21c-.08.88-.16 1.8-.16 2.76 0 .88.08 1.76.16 2.6h21v4.88H34.68c2.56 6.12 8.2 10.04 15.28 10.04 5.24 0 9.88-3 12.2-7.04v-.08Z" fill="#fff"/></svg>