<svg xmlns="http://www.w3.org/2000/svg" fill="none" viewBox="0 0 96 96" class="svg-icon " style=""> <title/> <path d="M48 96c26.51 0 48-21.49 48-48S74.51 0 48 0 0 21.49 0 48s21.49 48 48 48Z" fill="#EDF6FF"/><path d="M30.36 51.28h-8.44V69.4H13.4V20.88h21.32c9.6 0 15.84 6.24 15.84 15.2 0 8.96-5.68 13.32-11.48 14.24l11.84 19.04h-9.8L30.36 51.24v.04Zm3.2-22.88H21.92v15.4h11.64c4.8 0 8.28-3.04 8.28-7.72s-3.48-7.72-8.28-7.72v.04Zm20.76 54.36V34.24h7.64v4.8c2.6-3.48 6.68-5.68 11.28-5.68 9.08 0 15.56 6.84 15.56 18.4 0 11.56-6.48 18.48-15.56 18.48-4.44 0-8.44-1.96-11.28-5.76v18.24h-7.64v.04Zm16.64-42.6c-3.56 0-7.36 2.12-9 4.72v13.88c1.68 2.56 5.44 4.72 9 4.72 6.04 0 9.88-4.88 9.88-11.72 0-6.84-3.84-11.64-9.88-11.64v.04Z" fill="#EB0A29"/></svg>