<svg xmlns="http://www.w3.org/2000/svg" fill="#FFFFFF" viewBox="0 0 96 96" class="svg-icon " style=""> <title/> <path fill-rule="evenodd" clip-rule="evenodd" d="M17.956 52.187 35.541 6.83l-1.837-1.717a4.377 4.377 0 0 0-2.998-1.18c-1.258 0-2.394.53-3.195 1.378l-.003.003L1.292 33.167A4.348 4.348 0 0 0 0 36.263c0 1.21.495 2.308 1.292 3.096l12.507 11.75a4.387 4.387 0 0 0 3.042 1.222c.396 0 .78-.05 1.145-.15l-.03.006Zm35.969-38.685-7.994-3.117a4.298 4.298 0 0 0-1.573-.29 4.395 4.395 0 0 0-4.088 2.778l-.01.03-19.3 49.913a4.355 4.355 0 0 0 2.488 5.626l.03.008 19.982 7.673a4.355 4.355 0 0 0 5.626-2.488l.008-.03 5.036-12.987-.204-47.116Zm36.283-1.597H65.712a5.794 5.794 0 0 0-5.794 5.793v68.576a5.794 5.794 0 0 0 5.794 5.794h24.496A5.794 5.794 0 0 0 96 86.275V17.698a5.794 5.794 0 0 0-5.793-5.793Z"/></svg>