<svg xmlns="http://www.w3.org/2000/svg" fill="none" viewBox="0 0 96 96" class="svg-icon " style=""> <title/> <path d="M48 96c26.51 0 48-21.49 48-48S74.51 0 48 0 0 21.49 0 48s21.49 48 48 48Z" fill="#6CDE07"/><path d="M33.602 56.8c3.6 3.6 8.8 6.8 15.6 6.8 5.6 0 8.4-2.8 8.4-5.6 0-3.6-4.4-4.8-10-6.4-8-2-18.4-4-18.4-14.8 0-8 7.2-14.8 18.4-14.8 7.6 0 14.4 2.4 19.2 6.8l-6 7.6c-4-3.6-9.2-5.2-14-5.2-4.4 0-6.8 2-6.8 4.8 0 3.2 4 4.4 9.6 5.6 8 2 18.4 4.4 18.4 15.2 0 8.8-6.4 15.6-19.6 15.6-9.6 0-16-3.2-20.8-7.6l6-8Z" fill="#1F4002"/></svg>