<svg xmlns="http://www.w3.org/2000/svg" fill="none" viewBox="0 0 96 96" class="svg-icon " style=""> <title/> <path d="M96 48c0 2.4-.16 4.8-.52 7.12-.08.56-.16 1.12-.28 1.68-.48 2.64-1.2 5.2-2.12 7.68h-.04s0 .08-.04.12c-.4 1.12-.8 2.24-1.32 3.32-2.4 5.24-5.68 9.96-9.68 14h-.04c-.72.76-1.48 1.44-2.24 2.12a47.53 47.53 0 0 1-24.96 11.48c-.2.04-.4.04-.6.08-2 .28-4.08.4-6.16.4-4.96 0-9.76-.76-14.28-2.16h-.08c-.8-.24-1.56-.48-2.32-.8-4-1.44-7.76-3.44-11.16-5.88-.88-.6-1.76-1.28-2.6-2-.04 0-.08-.08-.16-.08a51.185 51.185 0 0 1-6.96-7.16c-.96-1.2-1.88-2.44-2.68-3.72 0-.04 0-.08-.04-.08-3.84-5.84-6.36-12.6-7.28-19.8-.12-.56-.16-1.08-.2-1.6A45.84 45.84 0 0 1 0 48.04a33 33 0 0 1 .16-3.44c0-.44.04-.88.08-1.36.88-9.04 4.32-17.4 9.56-24.28.4-.52.84-1.04 1.28-1.56C19.88 6.76 33.16 0 48 0c3.04 0 6 .28 8.88.84.72.12 1.44.28 2.12.44 4.04.92 7.84 2.36 11.4 4.24.68.36 1.32.76 2 1.12C82 12.32 89.48 21.28 93.24 32c.2.44.36.92.48 1.36.88 2.68 1.48 5.44 1.84 8.28.12.6.16 1.2.24 1.76.12 1.52.2 3.04.2 4.6Z" fill="#024AD6"/><path d="M91.88 66.76c-.08.4-.12.8-.2 1.16.52-1.08.92-2.2 1.32-3.32-.6.56-1 1.36-1.12 2.16Zm1.84-8.92c-1.28 1.84-2.8 3.52-4.48 5.04-.84.76-1.36 1.8-1.48 2.92-.08.76-.2 1.52-.32 2.24-1.16 6.08-3.88 10.32-4.88 11.92l-2.84 4.08c.76-.68 1.52-1.36 2.24-2.08H82l1.08-1.64c1.08-1.64 3.84-5.96 5-12.16.16-.76.24-1.52.36-2.28.08-1 .52-1.88 1.28-2.52 1.68-1.56 3.2-3.28 4.52-5.16.32-.44.64-.92.96-1.4.12-.56.2-1.12.28-1.68-.56.96-1.12 1.84-1.76 2.72ZM9.68 19.24c-.8 2.2-1.36 4.44-1.64 6.72l-.2.64-.28.44c-1.24 1.88-3.84 5.8-4.84 11.44-.12.6-.36 1.2-.68 1.76L.24 43.2c-.04.48-.08.92-.08 1.36.12-.2.28-.44.44-.68l2-3.28c.36-.64.64-1.32.76-2 1-5.52 3.52-9.36 4.76-11.2l.16-.24.4-1.08c.32-2.24.84-4.48 1.64-6.6l.2-.6s.08-.2.2-.52c.08-.28.2-.6.36-1-.44.52-.88 1.04-1.28 1.56l-.12.32Zm85.88 22.4c-.08.24-.16.44-.24.64v.28c-.24 1.8-.64 3.56-1.2 5.28-.88 2.68-2.2 5.2-3.84 7.48-1.4 2-3.08 3.8-4.96 5.32-.52.36-.92.88-1.2 1.44-.28.56-.44 1.16-.48 1.8 0 1.12-.16 2.24-.4 3.36-.96 5.28-3.36 8.96-4.36 10.52L76.6 81.2c-3.48 4.6-7.56 7.56-12.48 9.08l-1 .32-1.08.2c-1.4.24-2.8.36-4.24.36h-1.48l-1.64.08c-.88 0-1.72.16-2.56.44-3.44 1.16-7.44 1.72-12.6 1.72-2.92 0-5.76-.2-8.2-.4.76.32 1.52.56 2.32.8h.08c1.84.08 3.8.16 5.8.16 5.2 0 9.28-.56 12.8-1.72.76-.28 1.56-.4 2.36-.44l1.68-.08h1.4c1.48.04 2.92-.12 4.36-.36l1.16-.2 1.04-.32c5.04-1.56 9.24-4.6 12.76-9.32l2.32-3.44c1.04-1.6 3.48-5.36 4.48-10.76.2-1.16.32-2.32.4-3.48 0-.52.16-1.04.4-1.52.24-.48.6-.92 1-1.24 1.96-1.56 3.68-3.4 5.08-5.44 1.72-2.32 3.04-4.92 3.92-7.64.52-1.52.88-3.08 1.12-4.64-.08-.56-.12-1.16-.24-1.76v.04ZM35.88 4.12h.96c1.72 0 3.4.24 5.08.64 1.52.4 3.12.24 4.56-.48 2.8-1.36 5.6-2.2 8.36-2.56.2 0 .4-.04.56-.08.44 0 1.08-.12 1.92-.2.48-.04 1.04-.08 1.68-.12-.68-.16-1.4-.32-2.12-.44-.64.08-1.2.12-1.56.16-.16.04-.36.04-.6.08-2.8.36-5.68 1.24-8.52 2.6-1.28.64-2.76.8-4.16.44-1.68-.44-3.44-.64-5.2-.64H35.4c-2.04.16-4.08.52-6.04 1.08-3.4 1-6.56 2.8-9.16 5.16l-.96.88-.88 1.08c-2.64 3.24-3.64 6.24-4.2 7.84-.08.32-.16.52-.24.68l-.16.48c-.72 2.04-1.24 4.12-1.48 6.2-.12.28-.2.56-.28.8l-.12.4c-.08.24-.2.52-.28.68l-.44.64c-1.12 1.72-3.52 5.32-4.28 10.36-.12.76-.4 1.52-.76 2.2l-1.2 2.2-.12.16s-.28.36-.44.56l-.6.84C2.12 48.12.96 50.4.24 52.72c.04.52.08 1.04.2 1.6.64-2.72 1.88-5.4 3.84-8.24l.56-.76.48-.6 1.32-2.4c.44-.76.72-1.6.84-2.44.76-4.88 3.08-8.4 4.24-10.08l.44-.72c.08-.2.2-.48.32-.76l.12-.4c.08-.24.16-.52.28-.84.24-2.08.76-4.16 1.48-6.12l.16-.48.24-.72c.52-1.56 1.52-4.48 4.08-7.64l.84-1.08.92-.8c2.56-2.32 5.64-4.04 8.92-5.04 1.92-.56 3.92-.92 5.92-1.04h.44v-.04Z" fill="#6FC0FF"/><path d="M93.24 32c-.04 1.44-.28 2.68-.44 3.6v.12c-.32 1.8-.84 3.56-1.56 5.24v.2l-.08.16c0 .16-.08.32-.08.48v.24c-.2 1.48-.52 3-1.04 4.44-.72 2.28-1.84 4.44-3.24 6.36-1.4 2-2.96 3.6-4.72 4.88-.8.6-1.48 1.4-1.96 2.28-.44.88-.72 1.92-.72 2.92 0 1.2-.12 2.36-.36 3.56-.8 4.44-2.76 7.48-3.84 9.12l-1.68 2.52c-2.96 4.16-6.44 6.8-10.68 8.08l-.2.08c-.36.12-.72.2-1.08.24l-.28.08c-1.16.2-2.32.28-3.48.28h-1.04s-.32 0-.72.04h-.72c-.48.04-1.04.04-1.56.08-.88.04-1.8.2-2.64.52-3.04 1.08-6.76 1.6-11.6 1.6-3.08 0-6.08-.2-8.64-.4l-.76-.08c-.52-.08-1.08-.12-1.64-.2-2.32-.24-5.48-.6-9-2.24l-.84-.44c-.36-.2-.72-.4-1.08-.64.84.72 1.72 1.4 2.6 2 3.24 1.36 6.12 1.68 8.28 1.92.52.04 1.08.12 1.6.16l.8.08c2.56.2 5.6.44 8.68.44 4.92 0 8.68-.52 11.8-1.64.8-.32 1.64-.48 2.48-.52.48 0 1.04-.04 1.56-.04h.72l1.76-.04c1.16 0 2.36-.12 3.52-.32h.28c.4-.12.76-.2 1.16-.32l.2-.08c4.36-1.32 7.96-4.04 11-8.32l1.68-2.52c1.08-1.68 3.08-4.76 3.96-9.36.2-1.2.32-2.4.32-3.64.04-.92.28-1.84.68-2.64.44-.84 1.04-1.56 1.8-2.08 1.8-1.32 3.4-2.96 4.84-5 1.44-2 2.56-4.2 3.32-6.52.52-1.48.84-3.04 1.04-4.6v-.2s.04-.28.08-.48l.08-.2c.72-1.72 1.24-3.52 1.56-5.36v-.16c.12-.64.24-1.44.36-2.32-.12-.44-.28-.92-.48-1.36ZM18.48 22c.12-.32.2-.56.36-.92.44-1.4 1.24-3.76 3.32-6.32l.64-.76.68-.64C28.4 8.88 33.92 8.52 35.76 8.4h.32l.72-.04c2.2 0 4.32.44 6.36 1.28.4.2.8.28 1.24.24.44 0 .84-.12 1.2-.32h.08c1.84-1.08 5.28-3.08 9.72-3.64.2 0 .4-.04.52-.04.4-.08 1.04-.12 1.8-.2 1.32-.12 3.32-.28 5.48-.28 3.6 0 6.64.4 9.2 1.24-.68-.36-1.32-.76-2-1.12-2.12-.48-4.48-.72-7.2-.72-2.16 0-4.2.16-5.56.28-.76.08-1.4.16-1.76.2-.16.04-.36.04-.56.08-4.48.56-7.96 2.52-9.88 3.64h-.04c-.32.2-.68.28-1 .28-.36.04-.72-.04-1.04-.16-2.08-.88-4.28-1.32-6.56-1.32h-1.08c-1.88.16-7.56.52-12.64 5.12l-.72.68-.68.8c-2.12 2.64-2.92 5.04-3.4 6.52-.12.32-.2.56-.32.88l-.16.36c-.64 1.84-1.12 3.72-1.28 5.6-.04.08-.04.12-.04.12-.2.6-.4 1.2-.52 1.6-.24.64-.52 1.24-.6 1.44l-.36.52s-.08.16-.16.24l-.08.12c-1.08 1.64-3.36 5.08-3.76 9.72-.04.52-.16 1-.36 1.48l-.44 1.16c-.12.32-.32.64-.56.96-.36.44-.72.88-1.04 1.36l-.08.08s-.28.36-.44.56l-.76 1.04c-4.04 5.8-4.8 10.88-2.76 18.12l.12.4c.44 1.4.96 2.88 1.72 4.44l.48 1.08.12.24c.24.52.48 1.08.72 1.64.04 0 .04 0 .04.08.8 1.28 1.72 2.52 2.68 3.72-1.28-2-2.16-3.96-2.92-5.68l-.12-.24-.48-1.08c-.76-1.52-1.24-3-1.68-4.36l-.12-.4c-2-7.04-1.24-12 2.64-17.64l.8-1s.28-.36.4-.56l.08-.12c.36-.44.68-.88 1.04-1.32.28-.36.52-.72.64-1.12l.48-1.16c.2-.52.32-1.08.36-1.6.4-4.52 2.6-7.84 3.68-9.48l.08-.12s.16-.2.2-.24l.32-.56c.16-.24.4-.84.68-1.52.12-.4.32-1.04.52-1.64v-.12c.24-1.92.68-3.8 1.32-5.56l.12-.36Z" fill="#6FC0FF"/><path d="m88.16 25.08-.16-.36-.2-.36c-1.36-2.2-2.88-3.36-3.8-4.08-.2-.16-.4-.32-.56-.48l-.48-.44c-.92-.84-1.36-1.4-2-2.2-2-2.56-4.08-4.84-9.32-6.8l-.24-.08c-2.2-.8-4.92-1.16-8.2-1.16-2 0-3.92.16-5.16.24-.72.08-1.28.16-1.68.2-.12 0-.32 0-.48.08-3.68.44-6.64 2.12-8.4 3.16-.8.4-1.6.76-2.48 1.08-.28.12-.6.16-.96.16a3.46 3.46 0 0 1-.92-.24c-1.4-.64-4.08-1.72-6.32-1.72H36c-2.6.16-6.48.76-10.04 4l-.48.44-.44.56c-1.68 2.04-2.28 3.88-2.68 5.12-.12.4-.24.72-.4 1.12l-.08.24c-.56 1.52-.96 3.12-1.12 4.76-.08.44-.08.48-.12.64-.24.64-.48 1.48-.6 1.88-.36 1-.88 2.04-1.04 2.32l-.36.52s-.12.2-.2.32l-.12.16c-1.04 1.56-2.96 4.48-3.08 8.32v.92l-.08 1.4c0 .32-.16.64-.36.88-1.2 1.28-2 2.32-2.88 3.44-.24.32-.48.68-.76 1.04l-.32.4c-3.24 4.72-3.8 8.52-2.12 14.52l.08.28c.36 1.16.84 2.52 1.48 3.84.2.48.44.96.64 1.44 1.72 3.84 3.84 8.64 9.56 11.84l.56.28c3 1.4 5.68 1.72 7.88 1.92.56.08 1.12.16 1.72.24h.52c2.48.24 5.44.44 8.36.44 4.96 0 8.56-.56 11.32-1.8.2-.08.44-.16.68-.2.48-.08 2.28-.16 4.04-.2h.24c.48-.04.76-.04.96-.04h1c.96 0 1.92-.08 2.88-.24l.6-.12.52-.16c4.84-1.48 10-8.6 10.24-8.92 1.08-1.68 2.68-4.2 3.4-7.96.4-2.2.28-4.36.16-6.24-.04-.12 0-.32 0-.6.04-.6.2-1.16.56-1.68.32-.48.8-.88 1.32-1.12 2.48-1.12 4.56-2.92 6.32-5.44 1.2-1.64 2.12-3.48 2.76-5.4.4-1.2.68-2.48.84-3.72v-.2c0-.24.08-.48.12-.76.04-.36.16-.72.32-1.04v-.08c.64-1.4 1.04-2.88 1.28-4.36v-.16c.4-2.2 1.04-5.92-.92-9.88v.04Zm.44 9.8V35c-.28 1.48-.68 2.92-1.28 4.32h-.04c-.16.4-.28.8-.32 1.2-.08.28-.08.52-.12.76v.2a19.2 19.2 0 0 1-.84 3.64c-.6 1.88-1.52 3.64-2.68 5.24-1.72 2.44-3.72 4.16-6.08 5.28-.64.28-1.2.72-1.56 1.32-.4.56-.64 1.24-.68 1.96v.64c.12 1.84.28 3.96-.16 6.12-.68 3.64-2.24 6.12-3.28 7.72-.08.08-5.32 7.32-9.96 8.72l-.52.16-.52.12c-.92.16-1.84.24-2.76.24-.2-.04-.4 0-.64-.04h-.4s-.52 0-1 .04h-.24c-1.92.08-3.6.16-4.08.24-.28.04-.56.12-.84.24-2.68 1.2-6.2 1.72-11.08 1.72-2.92 0-5.84-.2-8.32-.36l-.48-.08c-.6-.08-1.2-.12-1.76-.2-2.12-.24-4.8-.52-7.68-1.88l-.56-.28c-5.52-3.12-7.64-7.8-9.32-11.56-.2-.48-.4-.96-.64-1.44-.64-1.32-1.08-2.64-1.44-3.8l-.08-.28c-1.64-5.8-1.12-9.48 2.04-14.04l.28-.4c.28-.36.56-.68.8-1.04.84-1.08 1.64-2.12 2.84-3.4.28-.32.48-.76.52-1.2l.08-1.44v-.4l-.04-.48c.16-3.72 2-6.52 3.04-8.08l.08-.16s.16-.24.24-.32l.32-.48c.2-.32.72-1.4 1.12-2.44.12-.44.36-1.28.6-1.92.08-.24.08-.28.12-.76.16-1.56.56-3.12 1.08-4.64l.08-.2c.16-.44.28-.76.44-1.16.36-1.2.96-3 2.56-4.96l.44-.52.44-.4c3.44-3.12 7.2-3.72 9.72-3.88h.76c2.16 0 4.72 1.04 6.08 1.64.36.16.76.28 1.16.28.4 0 .8-.04 1.16-.2.88-.28 1.72-.68 2.56-1.12 1.72-1 4.6-2.64 8.16-3.08.2-.04.36-.04.52-.08.4-.04.96-.08 1.64-.16 1.24-.12 3.12-.28 5.12-.28 3.24 0 5.88.4 8.04 1.12l.2.08c5.12 1.92 7.16 4.16 9.12 6.68.64.8 1.12 1.4 2.04 2.24l.44.4s.44.4.64.56c.88.68 2.36 1.8 3.64 3.92l.2.32.16.36c1.88 3.8 1.28 7.4.92 9.56Z" fill="#6FC0FF"/><path d="m84.32 26.96-.2-.36c-.92-1.52-1.96-2.32-2.72-2.92-.36-.28-.72-.56-1.04-.88l-.24-.24c-1.2-1.08-1.84-1.88-2.52-2.76-1.72-2.2-3.24-3.84-7.52-5.48H70c-1.76-.6-3.96-.92-6.8-.92-1.44 0-3.04.08-4.72.24-.68.08-1.2.12-1.52.16h-.08s-.28 0-.44.08c-2.84.32-5.24 1.72-6.84 2.64-1.52.84-3.76 1.68-5.08 2.04-.64.16-1.32.08-1.88-.2-.24-.12-.48-.28-.8-.44l-.24-.12c-1.08-.56-2.68-1.44-4.8-1.44h-.48c-2.12.16-4.92.64-7.48 2.96l-.24.2-.24.28c-1.16 1.44-1.56 2.68-1.92 3.8-.16.4-.28.8-.52 1.36v.08c-.48 1.24-.76 2.52-.92 3.84-.04.52-.12 1-.28 1.48-.2.52-.4 1.16-.52 1.6l-.08.28c-.48 1.24-1.2 2.92-1.64 3.48l-.2.28-.24.36-.12.2c-.92 1.4-2.32 3.44-2.4 6.12v.6c.08.4.12.8.2 1.2l.44 1.2s.08.36.04.52a.96.96 0 0 1-.28.48c-2.32 2.16-3.36 3.52-4.56 5.08-.28.36-.52.68-.84 1.08l-.16.2c-2.52 3.68-2.88 6.12-1.52 10.92v.12c.36 1.04.76 2.24 1.32 3.32.2.48.4.92.64 1.4v.16c1.64 3.6 3.32 7.32 7.76 9.8l.32.16c2.32 1.12 4.44 1.32 6.48 1.56.6.08 1.24.12 1.88.2h.28c2.36.24 5.2.44 8 .44 4.36 0 7.44-.48 9.68-1.44.48-.24 1-.4 1.52-.48.8-.16 2.24-.2 4.6-.28h.24c.56-.04.96-.04 1.2-.04h1c.76 0 1.44-.08 2.16-.2h.32l.24-.12c3.72-1.12 7.68-6.8 7.84-7.08 1.04-1.6 2.32-3.56 2.88-6.52.32-1.68.2-3.44.08-5.2-.08-1.28-.28-4 .28-4.6l.4-.56c.6-.92 1.52-1.6 2.56-1.92 2.36-.76 4.12-2.16 5.76-4.52.96-1.28 1.72-2.72 2.2-4.24.32-.96.52-1.92.64-2.92v-.2c0-.28.08-.6.16-.96.12-.68.32-1.32.56-1.92.52-1.12.84-2.32 1.04-3.52v-.16c.36-1.92.8-4.52-.56-7.28Zm.08 7.2v.16c-.24 1.16-.56 2.28-1.04 3.36-.28.68-.48 1.36-.6 2.04-.08.4-.12.72-.16 1v.24c-.12.92-.36 1.88-.64 2.8-.48 1.48-1.16 2.84-2.12 4.08-1.56 2.28-3.24 3.6-5.48 4.32-1.16.36-2.2 1.12-2.84 2.16l-.4.48c-.6.68-.52 2.88-.36 5.08.08 1.64.2 3.36-.12 5-.52 2.84-1.76 4.76-2.76 6.32 0 .04-4.04 5.76-7.56 6.84h-.2l-.28.12c-.68.12-1.4.16-2.08.16h-2.44c-2.44.08-3.88.16-4.68.32-.6.08-1.12.28-1.68.48-2.12.96-5.16 1.4-9.44 1.4-2.8 0-5.6-.2-7.96-.36h-.24c-.68-.12-1.28-.2-1.88-.28-2.04-.2-4.12-.44-6.36-1.48l-.24-.12c-4.32-2.44-5.92-6.08-7.52-9.6v-.16c-.24-.44-.48-.92-.68-1.4-.52-1.04-.92-2.24-1.24-3.24v-.12c-1.32-4.6-1-6.96 1.44-10.44l.12-.2c.28-.4.56-.72.8-1.08 1.2-1.56 2.24-2.88 4.52-5 .2-.2.36-.48.44-.76.04-.28.04-.56-.04-.84l-.44-1.16c-.08-.36-.12-.72-.16-1.08v-.56c.08-2.48 1.4-4.48 2.28-5.8l.12-.2s.2-.28.28-.4l.16-.24c.52-.68 1.28-2.52 1.68-3.6l.12-.32c.12-.44.32-1.08.52-1.6.16-.52.28-1.04.32-1.6.12-1.24.4-2.52.84-3.72l.08-.08c.2-.52.32-.96.48-1.36.32-1.08.72-2.28 1.84-3.6l.2-.24.2-.2c2.44-2.24 5.12-2.68 7.2-2.8h.4c2 0 3.52.8 4.52 1.36l.28.12c.28.16.56.32.8.44.68.36 1.52.44 2.28.24 1.36-.4 3.6-1.24 5.24-2.12 1.52-.88 3.88-2.24 6.6-2.56.16 0 .28-.04.4-.04H57c.32 0 .88-.12 1.52-.16 1.68-.16 3.24-.24 4.68-.24 2.76 0 4.92.28 6.64.88l.08-.28v.28c4.12 1.56 5.6 3.16 7.28 5.28.68.88 1.32 1.72 2.56 2.84l.24.2c.32.36.68.68 1.08.96.72.56 1.72 1.32 2.6 2.76l.16.32c1.28 2.6.84 5.12.56 6.96v.04Z" fill="#6FC0FF"/><path d="M80.04 33.28c-.2 1.16-.44 1.72-.68 2.36-.28.72-.64 1.48-.92 3.08-.12.64-.16 1.08-.24 1.52v.04c-.08.64-.12 1.08-.4 1.88-.2.64-.56 1.72-1.44 2.88-.72.92-1.88 2.48-3.44 2.68h-.52c-4.44-2.28-8.28-3.96-9.6-4.32-1.52-.44-1.36-3.8-1.16-6.76.08-1.32.16-2.56.08-3.64-.2-3.72-.88-7.84-4.12-9.84-1.96-1.2-4.44-1.52-6.84-1.56.44-.2.92-.48 1.48-.8 1.4-.84 3.16-1.84 4.92-2 .56-.04 1.12-.12 1.68-.2 3.52-.4 6.52-.72 9.72.36 1.44.48 4.44 2.16 5.2 3.68.52 1.08 1.44 1.92 3.28 3.64.96.88 1.56 1.4 2.04 1.76.64.56.76.64.96 1.04.6 1.2.36 2.48.08 4.24l-.08-.04ZM63.76 48.64c.24.08.36.4.2.64-.48.72-1 1.68-1.64 2.84-.32.56-.6 1.12-.84 1.52-.88 1.48-.92 2.72-1 3.72-.04 1.04-.12 1.52-.72 1.96-.52.36-1.04.48-4.72 1-.64.08-.92.24-1.16.32-.04 0-.08 0-.12.04-.24.12-.52-.12-.48-.4 0-.52.04-1.16.04-1.92v-1.92c-.04-.92-.04-1.32.2-1.72.32-.48.56-.64.92-.88.56-.36 1.28-.8 2.4-2.36.6-.8.72-1.24.8-1.64 0-.16.04-.2.52-.56.48-.36 1.96-1.48 3.84-1.16.48.08 1.12.28 1.8.48l-.04.04ZM49.28 65.56s-.16.16-.32.16c-.4 0-.64-.08-.84-.28-.36-.44-.32-1.4-.24-1.92l1.56-.4c.12.84.16 2-.16 2.48v-.04Zm.12-5.6c0 .24-.04.48-.04.76v1.12c-.48.16-.88.16-1.44.16v-1.32c0-.28 0-.8.08-.92.16 0 .28-.04.44-.08.32-.08.72-.16 1-.12v.36l-.04.04Zm-2.88 5.12c-.08.8-.32 1.76-1.08 1.92-.32.08-.48 0-.6-.12-.52-.48-.6-1.88-.52-2.88.32 0 .76-.08 1.28-.16.32-.08.64-.12.88-.2 0 .36.04.92 0 1.44h.04Zm-.36-2.84-1.68.6c.08-.64.2-1.56.24-2.2 0-.44.16-.56.16-.6h.08l1.08-.04c.04.48.04 1.6 0 2.28l.12-.04Zm-2.68-.52c-.08.24-.2.96-.28 1.48l-2.12-.08c.12-.64.28-1.32.48-1.84.2-.52.4-.92.56-1.04.2-.12.68-.16.96.08.48.4.6.84.4 1.36v.04Zm-.8 6.44c-.16.24-.36.32-.56.36-.24 0-.4 0-.56-.16-.68-.6-.6-2.6-.6-3.56.88-.2 1.8-.36 2.28-.4.08.8.08 2.88-.56 3.76Zm-2.76-5.12c-.12.28-.2.52-.28.76-.24.08-1 0-1.76-.16l.52-3.32c.88-.24 1.88-.32 2.12-.04.32.32-.32 2.04-.6 2.76Zm-.96 5.6c-.4.52-1.04.72-1.88.72-.6 0-.8-.24-.92-.4-.48-.76 0-2.52.44-3.64l2.84.16s.04.44.08.72c0 .8-.08 1.8-.6 2.44h.04Z" fill="#fff"/><path d="M70.2 47.64c-3.4-1.72-6.6-2.72-7.64-3-2.6-.76-2.36-4.52-2.16-8.12.08-1.28.16-2.52.12-3.52-.2-3.36-.8-7.08-3.52-8.76-2.92-1.8-7.76-1.4-10.72-1-1 .28-1.96.52-2.72.52h-.16c-1.76-.12-3.12-.84-4.32-1.48-.92-.52-1.76-.96-2.52-.96h-.12c-2.32.16-3.36.72-4.32 1.56-.24.24-.56.84-1.52 3.64-.48 1.4-.56 2.16-.64 2.92-.08.68-.16 1.36-.56 2.4-.24.72-.4 1.36-.6 1.96-.48 1.6-.84 2.84-1.96 4.36-.16.16-.32.4-.52.72-.24.4-.56.92-.96 1.48-.32.4-1 1.96-.96 2.4.08.76.32 1.2.56 1.76.28.52.6 1.12.68 1.96v.12c.08 1.32-.08 1.96-2.6 4.2-1.6 1.44-2.72 2.84-3.48 3.84-.08.08 0 .2.12.2h.48c.64.08 1.2.32 1.64.76.08.08.2.12.28.08.4-.16.88-.16 1.28-.12.52.08 1.04.2 1.4.52.12.12.28.2.48.16.4-.08.8-.08 1.2.08.28.08.52.24.72.44.2.2.52.24.76.12.08-.08.2-.12.28-.16.56-.16 1.16-.08 1.68.12.28.08.52.2.76.32.4.28.64.64.8 1.04.16.32.56.44.84.24.36-.24.64-.28.88-.16.12.08.24.12.28.2.2.24.52.48.84.4.8-.2 1.8-.08 2.52.32.28.12.52.36.72.68v-.16s.08-.12.16-.12h.16c.44-.2 2.56-.8 3.36.08.04.04.12.04.16 0l.24-.24c.56-.32 1.48-.36 2.08.2.12.08.32.04.44-.08 0-.08.12-.16.16-.2.24-.2.52-.28.8-.28h1.16c.32-.08 1.2-.12 1.52-.2h.04s.28-.04.44-.08c.56-.12 1.2-.28 1.72-.04.52.24.44.84.4 1.32-.04.2-.08.44-.08.64 0 .08 0 .2.04.28 0 .44 0 .84-.08 1.16v.24c.12.24.36.36.56.24.4-.24.8-.56.92-.72h.04l.08-.4c.08-.44.16-1.32.16-3.12v-.2c0-.64 0-1.2-.04-1.64-.04-1-.08-1.76.4-2.52.48-.76.92-1.04 1.36-1.32.52-.32 1.08-.68 2.04-2 .48-.64.56-.92.6-1.12.08-.52.24-.8 1-1.36.56-.44 2.4-1.8 4.84-1.4.8.12 2.08.56 3.36 1.08.08 0 .12 0 .16.04h.04c1.12.48 2.2.96 2.92 1.36.2.12.44 0 .6-.12.24-.28.48-.44.72-.6.12 0 .2-.12.28-.16.24-.2.2-.64-.08-.8ZM38.08 45.4c-.8 3.48-6.2 7.32-8.64 7.32h-.04s-.08 0-.12-.04h-.16s-.04-.04-.08-.04a4.34 4.34 0 0 1-1.52-.96c-.32-.28-.56-.68-.64-1.08v-.2c-.16-.6-.32-1.32.2-2.52.08-.16.16-.32.2-.48 0-.04.04-.08.04-.12.08-.12.12-.24.16-.36.08-.2.16-.36.2-.48 0-.04.04-.08.04-.16.16-.4.16-.56.2-.72 0-.12.04-.28.08-.52.16-.64.24-1.2.32-1.68.12-.88.2-1.64.68-2.36.08-.12.2-.2.28-.32.04-.04.08-.04.12-.08.04-.04.08-.08.12-.08l.36-.24s.08-.04.12-.04c.12-.04.2-.08.32-.08.44-.12.96-.16 1.56-.08.64.08 1.24.2 1.76.32.44.16.84.28 1.2.4.04 0 .08 0 .08.08.08 0 .16.04.2.04l.24.12c.12.04.2.12.32.12h.08c.36.24.68.4.96.6.12.12.28.2.36.32.04 0 .08.08.12.12.04 0 .08.04.12.08 1.04 1.08.96 2.36.8 3.12h-.04Zm2.48-13.16-.08.64c-.24 1.4-.8 3.36-2.84 3.84-2 .48-2.44.6-3.84.68h-.12c-1 0-2.96-.64-3.32-2.28-.24-1 .24-1.76.96-3 .16-.2.28-.44.44-.68.96-1.68 1.36-2.88 1.68-3.84.32-.96.56-1.72 1.2-2.36.16-.16.32-.32.52-.44.12-.08.28-.16.4-.24l.6-.24c.44-.16.96-.2 1.44-.2.96 0 1.92.24 2.6.8.28.24.72.72.96 2.2.16.72-.08 2.08-.6 5.12Zm14.6 4.04c-.72 1.2-1.08 1.88-1.68 2.36-1.24 1-2.64 1.24-3.8 1.24-.84 0-1.52-.12-1.96-.2-1.2-.2-3.4-.6-4.16-2.36-.12-.36-.16-.6-.16-.88s0-.72-.12-1.84v-.08c-.04-.48-.12-1.04.04-1.8v-.08c.4-2.12.52-2.44.64-2.64.2-.44.72-.6 1.12-.36.44.2.6.68.4 1.12-.04.12-.16.56-.48 2.2v.12c-.12.44-.08.8 0 1.24v.08c.12 1.2.12 1.76.12 2.04v.2c.12.28.36.52.72.72.28.16.56-.12.52-.44-.36-1.88-.32-4 .36-5.32.24-.44.68-1.2 1.08-1.88 0 0 .08-.12.12-.2.04-.08.04-.12.08-.16.2-.32.36-.6.52-.84v-.08h.04s.04-.16.08-.2h.04s.04-.08.04-.12v-.08c.12-.16.24-.32.32-.44.24-.32-.04-.72-.4-.56-.6.28-1 .6-1.08.64-.36.32-.92.24-1.2-.12-.28-.36-.24-.92.16-1.2.44-.36 2.76-2.04 5.56-1.24 2 .56 3.08 2.08 3.48 2.68.32.48 1.28 1.88 1.24 3.88 0 1.52-.64 2.6-1.8 4.6h.16Z" fill="#fff"/><path d="M37 25.84c-.16.36-.32.76-.48 1.24-.44 1.08-.92 2.32-1.16 2.76-.4.76-.72 1.24-.96 1.64-.28.44-.52.8-.68 1.28-.32.88-.36 1.84-.16 2.88-.52-.04-1.4-.44-1.52-.88-.08-.36.16-.72.76-1.76.12-.2.28-.44.4-.68 1.08-1.84 1.52-3.2 1.84-4.2.36-1.08.52-1.52 1.08-1.92.24-.16.56-.28.88-.36Zm-1.04 38.44c-.6 1.2-1.32 2.32-1.8 2.88-.4-1.04-1.04-3.4-.88-5.28v-.16c.08-.6.24-1.12.52-1.56.2-.28.68-.44 1.28-.44.44 0 .88.08 1.28.32.2.12.52.36.52 1 .04.92-.4 2.12-.96 3.24h.04Z" fill="#fff"/><path d="M68.44 50.72s.08.08.04.16c-.16.36-.4.6-.64.92-.32.36-.64.76-.96 1.4-.44.92-.6 1.72-.68 3.84-.08 2.48 0 3.88.08 4.88s.12 1.56-.08 2.52c-.36 1.92-1.16 3.2-2.24 4.84-1.32 2.04-2.68 4.12-4.92 4.76-.2.08-.2.08-.8.08-.52 0-1.36 0-2.96.08-2.92.12-4.4.16-5.64.4-1.32.24-2 .52-2.68.8-.6.24-1.16.48-2.24.68-.64.12-1.64.28-4.92.28-3.44 0-5.52 0-8.24-.32-3.76-.44-5.64-.64-6.92-1.32-2.96-1.56-4.2-4.4-6.28-9.12 0-.04.04-.12.12-.08.08.08.2.12.32.16.08 0 .2.04.28.08h.76c.12.36.36.68.68.88.36.2.76.2 1.16.2.4 0 .8 0 1.2-.08.2 0 .44.08.52.28.36.88.84 1.52 1.52 1.64h.16c.12 0 .32 0 .6-.2.32-.2.84-.08 1.08.2.16.16.32.32.44.4.72.72 2.4 1.08 3.84 1.08.8 0 1.48-.12 1.88-.32.6-.28.6-.72.56-.92l-.12-.96s.04-.04.08 0c.08.2.2.44.48.48h.12c.4 0 1.04.12 1.12.52.04.2.12.4.24.56.24.4.72.84 1.68.84h.08c1.12 0 1.96-.36 2.56-1.08 0-.04.08-.08.12-.16.2-.28.84-.32 1.08-.08.28.28.68.4 1.08.4h.2c.48-.04.92-.32 1.24-.76.2-.28.36-.64.48-1.04 0-.12.2-.16.28-.08.2.2.56.4 1.04.4.12 0 .24 0 .4-.04.96-.2 1.44-1 1.68-1.88h.08c.24.28.68.64 1.48.64H49c.4 0 .76-.2 1.04-.52.28-.4.44-.96.44-1.52 0-.2.16-.4.36-.48.8-.36 1.8-1.08 2.08-1.56.08-.16.24-.28.4-.32.6-.12.88-.24 1.12-.36.2-.08.36-.16.84-.24 3.72-.56 4.44-.68 5.24-1.24 1.2-.8 1.28-1.92 1.32-2.96.04-.92.12-1.92.8-3.12.24-.44.56-1 .88-1.56.52-1 1.28-2.36 1.84-3.12.12-.16.36-.24.56-.16 1.24.52 2.32 1.08 2.56 1.24l-.04-.04Z" fill="#fff"/><path d="M32.36 61.76c-.16 1.28-.24 3 0 5.24.04.64.16 1.28.24 1.96-.16.08-.72.24-1.64.2-1.36 0-2.64-.36-3.04-.8h-.08c-.32-.32-.56-.48-.56-.96 0-.16.04-.32.2-.52.08-.12.2-.28.32-.44.24-.32.52-.68.8-1.16.84-1.44 1.16-1.88 1.56-2.4 0-.04.08-.08.12-.12.24-.32.52-.72.96-1.36.32-.48.56-.84.8-1.16.36-.48.6-.76.76-.88 0 .24-.08.52-.12.8-.08.44-.16 1-.24 1.64l-.08-.04Zm-.64-19.96c-.16.24-.36.52-.6 1.04-.64 1.44-.64 2.24-.68 2.88 0 .36 0 .6-.12.92-.08.2-.16.44-.28.72-.36.88-.88 2-.64 3.52-.32-.16-.76-.48-.84-.68 0-.08 0-.16-.04-.24-.12-.48-.16-.8.12-1.48.8-1.84.88-2.28.96-2.76 0-.12 0-.2.04-.32.16-.72.24-1.36.32-1.84.12-.76.16-1.24.44-1.64.08-.12.36-.2.72-.2h.6v.08Zm-1.04 18.12c-.04-.44-.12-.88-.28-1.28 0 0-.04-.12-.08-.16 0-.04-.08-.12-.08-.16l-.04-.04-.08-.08h-.04s-.08 0-.08-.04h-.04c-.24-.08-.52-.2-.8-.24h-.24s-.12 0-.2.04c0 0-.04 0-.08.04 0 0-.04 0-.08.04 0 0-.04.08-.08.08 0 0 0 .04-.04.08-.12.16-.2.32-.32.48-.24.36-.52.76-.76 1.12-.24.32-.48.68-.72 1-.12.2-.24.36-.4.56 0 0-.04.08-.08.08.16 0 .32.04.44.08.36.08.68.12 1.04.16.72.08 1.44.16 2.16.12h.12c.16-.24.4-.56.64-.96.16-.24.28-.44.4-.64-.04-.08-.08-.2-.12-.32l-.16.04Zm-2.56 2.96c-.08.56-.68 2-1.64 3.36-.8 1.16-1.32 1.4-1.4 1.44-.4-.04-.76-1.04-1.08-2-.12-.4-.24-.76-.32-1.12-.2-.72-.24-1.72-.2-2.32.8.44 2.24.56 4.28.6 0 0 .28 0 .4.04h-.04Zm-1.44-4.56v.04c-.36.52-.68 1-1.04 1.52-.2.28-.36.52-.52.8-.08.16-.24.32-.36.48-.28-.08-.56-.12-.84-.2-.24-.08-.48-.12-.68-.24-.04 0-.08 0-.12-.04 0-.08-.08-.16-.16-.2.08-.16.16-.32.24-.52.16-.32.32-.6.48-.92.32-.52.68-1.08 1.2-1.4 0 0 .04 0 .08-.04.2-.12.4-.2.64-.24h.28c.08 0 .12 0 .2.04h.08c.04 0 .12.08.16.12l.12.12c.16.2.2.4.24.68Zm-2.76-1.44c-.64.52-1.12 1.24-1.48 1.96-.2.4-.4.8-.64 1.24 0 .04-.04.08-.08.12-.2-.04-.4-.08-.56-.16-.2-.08-.4-.12-.6-.24a1.95 1.95 0 0 0-.28-.12c.2-.36.44-.72.64-1.04.32-.48.64-.96 1-1.4.12-.16.28-.36.48-.48.2-.12.44-.08.64-.08.24 0 .48 0 .72.12.04 0 .08.04.12.08h.04Zm-1 8.6-.08.08H21.4c-.16 0-.32 0-.4-.12-.12-.16-.16-.48-.2-.68-.2-1.08-.24-2.24-.08-3.36.56.2 1.16.36 1.76.48-.12 1 .08 2.48.24 2.92.08.2.12.4.2.64v.04Zm-1.84-8.96c-.52.64-.96 1.28-1.4 1.96-.16.28-.36.56-.48.88-.2-.04-.4-.12-.56-.24-.16-.08-.28-.2-.44-.28 0 0-.12-.12-.2-.16h-.04c.04-.12.12-.28.16-.36.12-.24.24-.48.36-.68.24-.4.48-.84.8-1.2.12-.12.2-.32.4-.36.16-.04.36 0 .48 0 .36.08.68.24.92.52v-.08Zm-3.92 2.68h.08c.12.2.32.36.52.48.08.08.16.12.28.2v.04c-.2.84-.36 1.76-.36 2.64 0 .04-.08.04-.08 0-.24-1.04-.6-2.76-.44-3.36Zm2.48 1.88c-.12.76-.16 1.52-.12 2.28 0 .4.08.84.12 1.24h-.36c-.12 0-.12 0-.2-.08-.12-.08-.24-.2-.32-.32-.2-.36-.24-.8-.28-1.16 0-.8 0-1.56.2-2.32.12.04.24.08.4.16.16.08.36.16.56.24v-.04Z" fill="#fff"/></svg>