<svg xmlns="http://www.w3.org/2000/svg" fill="none" viewBox="0 0 96 96" class="svg-icon " style=""> <title/> <path d="M96 48c0 26.51-21.49 48-48 48S0 74.51 0 48 21.49 0 48 0s48 21.49 48 48Z" fill="#8DC351"/><path d="M60.915 29.25c-3.21-5.49-9-5.115-15.57-2.76l-3.705-7.98-4.845 2.25 3.6 7.74-3.855 1.845L33 22.5l-4.845 2.235 3.69 7.965c-1.035.51-2.07 1.02-3.075 1.5l-6.69 3.09 2.4 5.19s3.54-1.74 3.51-1.635a2.758 2.758 0 0 1 3.774.815l.006.01 4.2 9.075.525-.21-.51.24 5.895 12.72a1.891 1.891 0 0 1-1.142 2.501l-.013.004c.09 0-3.525 1.635-3.525 1.635l1.71 6.24 6.315-2.925 3.48-1.575 3.795 8.01 4.845-2.235-3.69-7.98c1.335-.585 2.625-1.17 3.885-1.755l3.675 7.935L66 71.1 62.28 63c7.935-4.245 12.69-9 9.855-16.92-2.28-6.435-6.465-7.845-11.595-6.81 2.145-2.67 2.73-6 .375-10.02ZM62.1 49.62c2.805 6-7.83 10.11-11.115 11.64L46.05 50.58c3.285-1.515 13.155-7.245 16.05-.96Zm-9.225-14.01c2.535 5.475-6.36 8.82-9.09 10.08L39.3 36c2.7-1.26 10.935-6.105 13.575-.39Z" fill="#fff"/></svg>