<svg xmlns="http://www.w3.org/2000/svg" fill="none" viewBox="0 0 96 96" class="svg-icon " style=""> <title/> <path d="M96 48c0 26.51-21.49 48-48 48S0 74.51 0 48 21.49 0 48 0s48 21.49 48 48Z" fill="#F3BA2F"/><path d="M36.348 43.212 48 31.56l11.658 11.658 6.78-6.78L48 18 29.568 36.432l6.78 6.78ZM18 48l6.78-6.78L31.56 48l-6.78 6.78L18 48Zm18.348 4.788L48 64.44l11.658-11.658 6.78 6.777L48 78 29.559 59.559l6.789-6.771ZM64.44 48l6.78-6.78L78 48l-6.78 6.78L64.44 48Zm-9.564-.006h.006V48L48 54.882 41.115 48l.012-.009 1.788-1.791L48 41.118l6.879 6.879-.003-.003Z" fill="#fff"/></svg>