<svg xmlns="http://www.w3.org/2000/svg" fill="none" viewBox="0 0 96 96" class="svg-icon " style=""> <title/> <path d="M48 96c26.51 0 48-21.49 48-48S74.51 0 48 0 0 21.49 0 48s21.49 48 48 48Z" fill="#0F76F8"/><path d="M48 92.4 9.52 70.2V25.8L48 3.6l38.48 22.2v44.44L48 92.44v-.04ZM12.76 68.36 48 88.72l35.24-20.36V27.64L48 7.32 12.76 27.64v40.72Z" fill="#fff"/><path d="M62.36 23.84H33.44L30.08 38.6h35.84l-3.56-14.76Zm-23.8 35v-9.8l-8.6-5.4-9.72 7.2 13.24 23.04h5.32L45.04 68v-2.88l-6.52-6.24.04-.04Z" fill="#fff"/><path d="M57.32 40.8H38.64l3.08 8.2-.92 9.24h14.36L54.24 49l3.08-8.2Z" fill="#fff"/><path d="m65.92 43.52-8.48 5.52v9.8L51 65.08v2.88l6.24 5.8h5.24L75.64 50.8l-9.72-7.28Z" fill="#fff"/></svg>