<svg xmlns="http://www.w3.org/2000/svg" fill="none" viewBox="0 0 96 96" class="svg-icon " style=""> <title/> <path d="M48 0c26.52 0 48 21.48 48 48S74.52 96 48 96 0 74.52 0 48 21.48 0 48 0Z" fill="#F5AC37"/><path d="M49.76 51.4H68c.4 0 .56 0 .6-.52.16-1.84.16-3.72 0-5.56 0-.36-.16-.52-.56-.52H31.72c-.44 0-.56.16-.56.56v5.32c0 .453.24.68.72.68h17.88v.04Zm16.8-12.84s.04-.28 0-.4c-.32-.68-.68-1.28-1.08-1.88-.64-1-1.36-1.96-2.24-2.8-.4-.52-.88-.96-1.4-1.36-2.6-2.2-5.68-3.76-9-4.56-1.68-.36-3.4-.56-5.08-.56H31.68c-.44 0-.52.16-.52.56V38.2c0 .44 0 .56.56.56h34.6s.32-.08.36-.24h-.16l.04.04Zm0 19.08c-.52-.04-1.04-.04-1.52 0H31.76c-.44 0-.6 0-.6.6v10.4c0 .48 0 .6.6.6h15.36c.72.04 1.48 0 2.2-.16 2.24-.16 4.44-.64 6.52-1.44.76-.28 1.48-.6 2.2-1h.2c3.6-1.88 6.52-4.8 8.36-8.44 0 0 .2-.44 0-.56h-.04Zm-41.44 17v-16.6c0-.4 0-.44-.48-.44h-6.52c-.36 0-.52 0-.52-.48V51.4h6.96c.4 0 .56 0 .56-.52v-5.64c0-.36 0-.44-.48-.44h-6.52c-.36 0-.52 0-.52-.48v-5.28c0-.32 0-.4.48-.4h6.44c.44 0 .56 0 .56-.56V21.92c0-.48 0-.6.6-.6h22.48c1.64.08 3.24.24 4.88.56 3.32.6 6.48 1.8 9.4 3.48 1.92 1.12 3.72 2.52 5.28 4.08 1.2 1.24 2.24 2.56 3.2 4s1.72 3 2.36 4.6c.08.4.48.72.88.64h5.36c.453 0 .693.227.72.68v4.92c0 .48-.16.6-.68.6H75.4c-.4 0-.56 0-.52.56.16 1.84.16 3.68 0 5.48 0 .52 0 .56.56.56h4.72c.2.28 0 .56 0 .8v4.68c0 .52-.16.68-.6.68h-5.68c-.4-.08-.76.16-.88.56-1.36 3.52-3.52 6.64-6.32 9.2-1 .92-2.08 1.8-3.2 2.56-1.2.68-2.36 1.4-3.6 2-2.28 1-4.64 1.76-7.08 2.24-2.32.4-4.68.6-7.04.56H25.12v-.12Z" fill="#FEFEFD"/></svg>