<svg xmlns="http://www.w3.org/2000/svg" fill="none" viewBox="0 0 96 96" class="svg-icon " style=""> <title/> <path d="M95.895 48.105C95.895 74.557 74.451 96 48 96 21.548 96 .105 74.556.105 48.105.105 21.653 21.548.21 48 .21c26.451 0 47.895 21.443 47.895 47.895Z" fill="#C2A633"/><path d="M46.815 19.5h-16.5V45H23.55v6.255h6.765v25.5H49.5s27 2.265 27-28.185c0-29.955-25.785-29.07-29.685-29.07Zm2.28 46.74h-7.95v-15h12V45h-12V30h7.5c2.835 0 17.1 1.14 17.13 18.75.03 17.61-14.64 17.415-16.68 17.415v.075Z" fill="#fff"/></svg>