<svg xmlns="http://www.w3.org/2000/svg" fill="none" viewBox="0 0 96 96" class="svg-icon " style=""> <title/> <path d="M96 48c0 26.51-21.49 48-48 48S0 74.51 0 48 21.49 0 48 0s48 21.49 48 48Z" fill="#E7EAEF"/><path d="M48 84.75a2.426 2.426 0 0 1-.752-.125l.017.005a2.323 2.323 0 0 1-.445-.216l.01.006-22.995-13.785a2.237 2.237 0 0 1-1.017-2.476l-.003.016 8.055-33.36c.064-.28.179-.526.334-.741l-.004.006 15-21.855a2.354 2.354 0 0 1 3.716-.005l.004.005 15 21.855c.151.209.265.455.327.721l.003.014 8.055 33.36a2.234 2.234 0 0 1-1.01 2.454l-.01.006L49.17 84.42c-.12.074-.26.14-.405.19l-.015.005c-.223.085-.48.135-.749.135H48Zm14.37-42.18-10.5 35.01 16.59-9.96-6.09-25.05Zm-34.8 25.05 16.59 9.96-10.5-35.01-6.09 25.05ZM36 34.98 48 74.7l12-39.72-12-17.49-12 17.49Z" fill="#231F20"/></svg>