<svg xmlns="http://www.w3.org/2000/svg" fill="none" viewBox="0 0 96 96" class="svg-icon " style=""> <title/> <path d="M48 96c26.51 0 48-21.49 48-48S74.51 0 48 0 0 21.49 0 48s21.49 48 48 48Z" fill="#914FFF"/><path d="M65.56 36.32c-1.24-.72-2.84-.72-4.28 0l-10 5.88-6.8 3.76-9.8 5.88c-1.24.72-2.84.72-4.28 0l-7.68-4.64c-1.24-.72-2.16-2.16-2.16-3.76v-8.92c0-1.44.72-2.84 2.16-3.76l7.68-4.48c1.24-.72 2.84-.72 4.28 0l7.68 4.64c1.24.72 2.16 2.16 2.16 3.76v5.88l6.8-3.92v-6.08c0-1.44-.72-2.84-2.16-3.76l-14.28-8.4c-1.24-.72-2.84-.72-4.28 0l-14.64 8.56c-1.44.72-2.16 2.16-2.16 3.56v16.76c0 1.44.72 2.84 2.16 3.76l14.44 8.4c1.24.72 2.84.72 4.28 0l9.8-5.72 6.8-3.92 9.8-5.72c1.24-.72 2.84-.72 4.28 0l7.68 4.48c1.24.72 2.16 2.16 2.16 3.76v8.92c0 1.44-.72 2.84-2.16 3.76l-7.48 4.48c-1.24.72-2.84.72-4.28 0L53.6 65c-1.24-.72-2.16-2.16-2.16-3.76v-5.72l-6.8 3.92v5.88c0 1.44.72 2.84 2.16 3.76l14.44 8.4c1.24.72 2.84.72 4.28 0l14.44-8.4c1.24-.72 2.16-2.16 2.16-3.76V48.36c0-1.44-.72-2.84-2.16-3.76l-14.44-8.4.04.12Z" fill="#fff"/></svg>