<svg xmlns="http://www.w3.org/2000/svg" fill="none" viewBox="0 0 96 96" class="svg-icon " style=""> <title/> <path d="M48 0c26.52 0 48 21.48 48 48S74.52 96 48 96 0 74.52 0 48 21.48 0 48 0Z" fill="#EB0A29"/><path d="M66.64 49.44s-.52.68-1.04 1.04c-1.48 1.08-4.08 2.08-6.76 2.56-1.52.28-3.04.32-3.48.08-.28-.16-.32-.28-.24-.64.24-.8.96-1.68 2.08-2.48.56-.4 2.88-1.84 3.96-2.4 1.8-.96 3.24-1.56 4.2-1.68.32-.04.68-.04.8 0 .2.08.4.64.48 1.32.04.36 0 1.96 0 2.24v-.04Zm-25 3.52s-.4.28-.76.32c-.36.04-1.48 0-2.08-.04-2.24-.28-4.64-1-6.36-1.84-.96-.48-1.68-.96-2.2-1.48l-.28-.32v-.4c-.08-.68-.08-1.8 0-2.2.04-.32.16-.64.32-.92l.48-.12c.48 0 .84.08 1.48.28 1.32.4 3.24 1.36 5.6 2.8 1.96 1.16 2.68 1.72 3.24 2.52.4.48.64 1.16.56 1.4Zm15 14.76s-.12.56-.28 1.16c-.16.6-.28 1.08-.28 1.12h-.64l-.48 1.12c-.24.6-.48 1.16-.52 1.24l-.08.16-.24-.36-.24-.36v-2.92h-.08s-1.48.24-2.04.28c-2.32.24-4.64.2-6.96-.16-.36-.04-.68-.08-.68-.08v3.04l-.16.28c-.08.16-.2.28-.2.28s-.12-.12-.4-.64-.44-1.04-.6-1.6l-.08-.32h-.32l-.32.04-.08-.4c-.04-.2-.08-.56-.12-.72v-.32l-.32-.24c-.16-.12-.32-.28-.36-.28a.306.306 0 0 1-.08-.2v-.12h2.64v.12l.08.12h.44c.24 0 1.08.04 1.8.08h1.32l.32-.48.36-.52h.44V64.8l-.6-.24c-1.88-.84-2.96-1.76-3.4-2.92-.08-.24-.08-.32-.12-1.36 0-1.04 0-1.16.08-1.36.16-.52.56-.96 1.08-1.08.2-.04.64-.04 3.16-.04h2.96l.32.16c.4.2.56.32.8.64s.32.6.32 1.24c0 .92-.08 1.72-.16 2.04-.12.44-.36.84-.6 1.2-.52.68-1.48 1.36-2.36 1.68l-.24.08v2.24h.24l.24.04.32.48.32.48h2.96c.12 0 .12 0 .24-.16l.12-.2h1.2c.92-.04 1.2 0 1.2 0h.08Z" fill="#000"/><path d="M51.04 70.76c-.2.12-.32.16-.36.16 0 0-.2-.12-.32-.24l-.28-.24-.28.32c-.64.68-.68.72-.84.76-.28 0-.36 0-.72-.56-.2-.28-.32-.52-.32-.52h-.56l-.12.24-.12.28-.24-.08s-.4-.12-.56-.24l-.32-.16v-.6h5.68v.28c0 .32 0 .32-.44.6h-.2Z" fill="#000"/><path d="M77.56 57.84v-.24c-2.56-.28-9.8-.44-16.56 5.12 0 0-2.16-9.96-12.36-9.96s-13.96 9.96-13.96 9.96c-5.72-6.12-13.32-5.68-16.08-5.28v.2c-.08 1.52-.04 2.28.2 3.24.8 3.04 3.24 6.36 7.08 9.6 6.28 5.36 14.8 9.2 21.28 9.64 6.72.44 16.68-3.48 23.28-9.24 1.04-.92 2-1.88 2.92-2.92.64-.76 1.64-2.08 1.56-2.08l.04-.04s.08-.04.04-.08c0 0 0-.04.04-.04s.04 0 .04-.04 0-.04.04-.04c0 0 .04-.04 0-.08v-.04s.04 0 .04-.04 0-.04.04-.04.04 0 .04-.04c0-.08.08-.16.12-.24.16-.24.8-1.36.88-1.56.6-1.36 1-2.6 1.16-3.8.08-.6.12-1.64.08-1.92l.08-.04ZM51.04 70.76c-.2.12-.32.16-.36.16 0 0-.2-.12-.32-.24l-.28-.24-.28.32c-.64.68-.68.72-.84.76-.28 0-.36 0-.72-.56-.2-.28-.32-.52-.32-.52h-.56l-.12.24-.12.28-.24-.08s-.4-.12-.56-.24l-.32-.16v-.6h5.68v.28c0 .32 0 .32-.44.6h-.2Zm5.32-1.92c-.16.6-.28 1.08-.28 1.12h-.64L55 71.08c-.24.6-.48 1.16-.52 1.24l-.08.16-.24-.36-.24-.36v-2.92h-.08s-1.48.24-2.04.28c-2.32.24-4.64.2-6.96-.16-.36-.04-.68-.08-.68-.08v3.04l-.16.28c-.08.16-.2.28-.2.28s-.12-.12-.4-.64-.44-1.04-.6-1.6l-.08-.32h-.32l-.32.04-.08-.4c-.04-.2-.08-.56-.12-.72v-.32l-.32-.24c-.16-.12-.32-.28-.36-.28a.306.306 0 0 1-.08-.2v-.12h2.64v.12l.08.12h.44c.24 0 1.08.04 1.8.08h1.32l.32-.48.36-.52h.44v-2.24l-.6-.24c-1.88-.84-2.96-1.76-3.4-2.92-.08-.24-.08-.32-.12-1.36 0-1.04 0-1.16.08-1.36.16-.52.56-.96 1.08-1.08.2-.04.64-.04 3.16-.04h2.96l.32.16c.4.2.56.32.8.64s.32.6.32 1.24c0 .92-.08 1.72-.16 2.04-.12.44-.36.84-.6 1.2-.52.68-1.48 1.36-2.36 1.68l-.24.08v2.24H50l.24.04.32.48.32.48h2.96c.12 0 .12 0 .24-.16l.12-.2h1.2c.96 0 1.2 0 1.2.04 0 0-.16.52-.32 1.12h.08Z" fill="#fff"/><path d="M77.48 56.76c0-.48-.08-1.16-.08-1.48-.44-4.8-1.68-8.76-4-12.92-.08-.16-.2-.32-.24-.44 0 0 0-.08-.04-.08.32-1 1.68-5.12 2.76-9.84 1.44-6.4 2.36-13.88-.44-16.12 0 0-4.88-.36-11.4 6.04-1.76 1.76-3.4 3.68-4.84 5.72l-.44-.16c-2.64-.84-5.36-1.4-8.08-1.56-.84-.08-3.92-.08-4.92 0-3.04.2-5.36.64-8.04 1.56-.12.04-.2.08-.28.12a39.719 39.719 0 0 0-5-5.68c-6.8-6.44-11.84-6.08-11.84-6.08-3 2.32-1.96 10.16-.44 16.76 1 4.36 2.28 8.24 2.72 9.6 0 .08-.08.16-.12.24-2.48 5-3.8 9.84-4.12 14.96 2.76-.4 10.4-.84 16.12 5.28 0 0 3.76-9.96 13.96-9.96 10.2 0 12.36 9.96 12.36 9.96 6.76-5.56 14-5.4 16.56-5.12 0-.2 0-.52-.04-.84l-.12.04ZM24.8 38.24s-3.96-9.92-2.96-15.56c.16-.96.48-1.8 1-2.44 0 0 4.48.44 11.76 8.52 0 0-1.36.68-3.24 2.08-2 1.52-4.56 3.96-6.56 7.4Zm16.84 14.72s-.4.28-.76.32c-.36.04-1.48 0-2.08-.04-2.24-.28-4.64-1-6.36-1.84-.96-.48-1.68-.96-2.2-1.48l-.28-.32v-.4c-.08-.68-.08-1.8 0-2.2.04-.32.16-.64.32-.92l.48-.12c.48 0 .84.08 1.48.28 1.32.4 3.24 1.36 5.6 2.8 1.96 1.16 2.68 1.72 3.24 2.52.4.48.64 1.16.56 1.4Zm24.96-3.52s-.52.68-1.04 1.04c-1.48 1.08-4.08 2.08-6.76 2.56-1.52.28-3.04.32-3.48.08-.28-.16-.32-.28-.24-.64.24-.8.96-1.68 2.08-2.48.56-.4 2.88-1.84 3.96-2.4 1.8-.96 3.24-1.56 4.2-1.68.32-.04.68-.04.8 0 .2.08.4.64.48 1.32.04.36 0 1.96 0 2.24v-.04ZM64.84 30.8c-1.8-1.44-3.12-2.08-3.12-2.08 7-8.04 11.36-8.52 11.36-8.52.48.64.8 1.48.96 2.44 1 5.68-2.84 15.6-2.84 15.6-1.6-2.84-3.76-5.36-6.32-7.4l-.04-.04Z" fill="#FFA409"/><path d="M74.04 22.64c-.84-.12-4.72-.12-9.16 8.16-1.8-1.44-3.12-2.08-3.12-2.08 7-8.04 11.36-8.52 11.36-8.52.48.64.8 1.48.96 2.44h-.04Z" fill="#FF9300"/><path d="M71.2 38.24c-1.6-2.88-3.76-5.36-6.32-7.4 4.44-8.32 8.32-8.28 9.16-8.16 1 5.68-2.84 15.6-2.84 15.6v-.04Z" fill="#FF8300"/><path d="M34.6 28.72s-1.36.68-3.24 2.08c-4.6-8.32-8.64-8.28-9.48-8.16.16-.96.48-1.8 1-2.44 0 0 4.52.44 11.76 8.52h-.04Z" fill="#FF9300"/><path d="M31.36 30.8c-2 1.56-4.6 3.96-6.56 7.4 0 0-3.96-9.92-2.96-15.6.84-.12 4.92-.12 9.48 8.16l.04.04Z" fill="#FF8300"/><path d="M60.48 43.72s-3.4.2-2.96-2.44c.44-2.64 3.08-2.96 3.8-2.88.72.08 3.72 1.16 3.2 3.4s-1.28 1.8-1.68 1.92c-.4.12-2.32 0-2.32 0h-.04Zm-25.04 0s-3.4.2-2.96-2.44c.44-2.64 3.08-2.96 3.8-2.88.72.08 3.72 1.16 3.2 3.4s-1.28 1.8-1.68 1.92c-.4.12-2.32 0-2.32 0h-.04Z" fill="#fff"/></svg>