<svg xmlns="http://www.w3.org/2000/svg" fill="none" viewBox="0 0 96 96" class="svg-icon " style=""> <title/> <path d="M96 48c0 26.51-21.49 48-48 48S0 74.51 0 48 21.49 0 48 0s48 21.49 48 48Z" fill="#fff"/><path d="M67.924 36.044a1.417 1.417 0 0 1-.57.393 1.654 1.654 0 0 1-.687.137H22.201c-1.57 0-2.375-1.963-1.276-3.14l7.303-7.755c.157-.177.353-.315.589-.413.216-.098.451-.137.687-.137h44.643c1.59 0 2.375 1.983 1.256 3.16l-7.48 7.755Zm0 34.67c-.334.334-.786.53-1.257.53H22.201c-1.57 0-2.375-1.924-1.276-3.062l7.303-7.578c.157-.177.373-.314.589-.393.216-.098.451-.137.687-.137h44.643c1.59 0 2.375 1.943 1.256 3.082l-7.48 7.558Zm0-27.583a1.785 1.785 0 0 0-1.257-.53H22.201c-1.57 0-2.375 1.924-1.276 3.063l7.303 7.578c.157.176.373.314.589.392.216.099.451.138.687.138h44.643c1.59 0 2.375-1.944 1.256-3.082l-7.48-7.559Z" fill="url(#a)"/><defs><linearGradient id="a" x1="23.812" y1="71.82" x2="72.388" y2="24.527" gradientUnits="userSpaceOnUse"><stop stop-color="#CF41E8"/><stop offset="1" stop-color="#10F2B0"/></linearGradient></defs></svg>