<svg xmlns="http://www.w3.org/2000/svg" fill="none" viewBox="0 0 96 96" class="svg-icon " style=""> <title/> <path d="M95.895 48.105C95.895 74.557 74.452 96 48 96S.105 74.556.105 48.105C.105 21.653 21.548.21 48 .21s47.895 21.443 47.895 47.895Z" fill="#EB0A29"/><path d="M19.065 21a14.2 14.2 0 0 0 2.22.457l.075.008 45.645 8.355c.235.03.441.134.6.285l12.06 11.475c.195.18.225.285 0 .51-3.36 4.07-6.71 8.145-10.05 12.225L50.82 77.28l-6.21 7.5-.195.21-1.005-2.49c-3.89-9.76-7.77-19.52-11.64-29.28-4.18-10.55-8.385-21.115-12.615-31.695a2.86 2.86 0 0 1-.161-.505L18.99 21h.075Zm25.2 54.495h.09c.165-1.5.345-3 .525-4.5.345-2.775.675-5.535 1.02-8.31.3-2.55.6-5.1.915-7.65.315-2.55.615-5.13.93-7.695a.599.599 0 0 0-.253-.629h-.002L25.83 28.694h-.075l18.51 46.8Zm3.48.18 25.635-31.23h-.345L63 46.305l-11.685 2.1c-.3 0-.375.195-.405.465 0 .825-.18 1.62-.285 2.43-.33 2.775-.675 5.55-1.005 8.325a1942.5 1942.5 0 0 1-.93 7.695l-.945 8.355Zm-19.5-49.5v.09l2.55 2.235 18.195 15a.434.434 0 0 0 .69.001V43.5c3.84-3.22 7.69-6.435 11.55-9.645l1.59-1.32-34.575-6.36ZM53.85 44.46c.45 0 19.5-3.435 19.995-3.6 0 0 0-.105-.105-.15a686.293 686.293 0 0 1-6.825-6.495c-.315-.3-.465-.255-.765 0-2.85 2.4-5.73 4.785-8.595 7.17-1.2 1.005-2.415 2.01-3.705 3.075Z" fill="#fff"/></svg>