<svg xmlns="http://www.w3.org/2000/svg" fill="none" viewBox="0 0 96 96" class="svg-icon " style=""> <title/> <path d="M96 48c0 26.48-21.48 48-48 48S0 74.48 0 48c0-15.36 7.2-29 18.4-37.8.24-.2.52-.4.76-.56C27.2 3.56 37.2 0 48 0c26.52 0 48 21.48 48 48Z" fill="#FF007A"/><path d="M37.08 16.88c-.92-.12-.96-.16-.52-.24.84-.12 2.8.04 4.16.36 3.2.76 6.04 2.68 9.12 6.12l.8.92 1.16-.16c4.92-.8 9.96-.16 14.16 1.76 1.16.52 2.96 1.6 3.2 1.84.08.08.24.68.32 1.24.32 2.08.16 3.64-.48 4.8-.36.68-.36.84-.12 1.4.16.44.72.76 1.2.76 1.08 0 2.16-1.68 2.68-4.04l.24-.92.4.44c2.24 2.52 4.04 6 4.28 8.48l.08.68-.4-.56c-.68-1-1.28-1.68-2.12-2.24-1.52-1-3.08-1.32-7.28-1.56-3.8-.24-5.96-.52-8.08-1.24-3.64-1.2-5.48-2.76-9.76-8.44-1.92-2.52-3.08-3.88-4.28-5.04-2.6-2.52-5.2-3.84-8.6-4.36h-.16Z" fill="#fff"/><path d="M70 22.52c.08-1.68.32-2.8.8-3.8.16-.4.36-.76.4-.76.04 0-.04.32-.16.68-.36.96-.4 2.36-.16 3.88.32 2 .44 2.24 2.56 4.44.96 1 2.12 2.28 2.56 2.84l.76.96-.76-.72c-.92-.88-3.04-2.56-3.52-2.8-.32-.16-.36-.16-.56.04-.16.16-.24.44-.24 1.72-.04 2-.32 3.24-.96 4.52-.36.68-.4.52-.08-.24.24-.56.28-.84.28-2.76 0-3.84-.44-4.76-3.12-6.32-.68-.4-1.8-.96-2.48-1.28-.72-.32-1.24-.56-1.2-.56.08-.08 2.68.68 3.72 1.12 1.56.6 1.8.68 2 .6.12-.12.24-.48.28-1.6l-.12.04Zm-31.12 6.56c-1.84-2.56-3.04-6.56-2.8-9.52l.08-.92.44.08c.8.12 2.16.68 2.84 1.08 1.76 1.08 2.56 2.52 3.32 6.16.24 1.08.52 2.28.68 2.68.24.68 1.08 2.2 1.76 3.2.48.72.16 1.08-.92.96-1.68-.16-3.92-1.72-5.4-3.72Zm28.88 19.24C59 44.8 55.92 41.72 55.92 36.56c0-.76.04-1.36.04-1.36.04 0 .36.28.76.56 1.76 1.4 3.76 2.04 9.28 2.84 3.24.48 5.08.84 6.76 1.4 5.36 1.76 8.68 5.4 9.44 10.28.24 1.4.08 4.12-.28 5.52-.32 1.12-1.2 3.12-1.4 3.2-.04 0-.12-.24-.12-.56-.08-1.84-1-3.64-2.56-5-1.84-1.6-4.24-2.8-10.08-5.12Zm-6.2 1.44c-.08-.68-.32-1.52-.44-1.84l-.24-.68.4.48c.56.68 1 1.44 1.4 2.56.32.84.32 1.12.32 2.48 0 1.36-.04 1.64-.32 2.4-.44 1.2-.96 2.04-1.84 2.96-1.6 1.64-3.68 2.52-6.64 2.92-.52.04-2.04.16-3.36.28-3.32.16-5.52.52-7.52 1.24-.28.08-.52.16-.56.12-.08-.08 1.28-.88 2.4-1.4 1.56-.76 3.12-1.16 6.64-1.76 1.72-.28 3.48-.6 3.92-.8 4.36-1.36 6.56-4.76 5.84-8.92v-.04Z" fill="#fff"/><path d="M65.6 56.88c-1.16-2.52-1.4-4.92-.8-7.16.08-.24.16-.44.28-.44.12 0 .36.12.6.32.52.36 1.64.96 4.48 2.52 3.6 1.96 5.6 3.44 7.04 5.16 1.24 1.52 2 3.24 2.36 5.36.24 1.2.08 4.08-.24 5.28-.96 3.76-3.2 6.76-6.4 8.48-.48.28-.88.44-.92.44-.04 0 .12-.44.4-.96 1.08-2.24 1.2-4.44.4-6.84-.48-1.52-1.52-3.32-3.52-6.36-2.44-3.52-3-4.48-3.64-5.76l-.04-.04ZM32.64 70.4c3.28-2.76 7.28-4.68 11-5.32 1.6-.28 4.24-.16 5.72.24 2.36.6 4.48 1.96 5.56 3.6 1.08 1.6 1.56 2.96 2.04 6 .16 1.2.4 2.44.44 2.68.36 1.6 1.08 2.84 1.96 3.48 1.36 1 3.76 1.08 6.12.16.4-.12.76-.28.76-.24.08.08-1.12.88-1.92 1.28-1.12.56-2 .76-3.2.76-2.12 0-3.92-1.12-5.4-3.32-.32-.44-.92-1.72-1.44-2.92-1.56-3.6-2.36-4.64-4.16-5.84-1.6-1-3.64-1.24-5.16-.48-2.04.96-2.56 3.6-1.16 5.16.56.68 1.64 1.2 2.52 1.32 1.64.24 3.04-1.08 3.04-2.68 0-1.08-.4-1.68-1.44-2.16-1.4-.6-2.96.08-2.92 1.44 0 .56.28.92.84 1.2.24.107.267.147.08.12-1.28-.28-1.6-1.84-.56-2.88 1.24-1.24 3.84-.72 4.72 1 .36.72.4 2.12.08 3-.76 1.96-2.88 2.96-5.04 2.4-1.44-.4-2.08-.8-3.84-2.6-3.08-3.2-4.28-3.8-8.72-4.48l-.84-.12.92-.88v.08Z" fill="#fff"/><path fill-rule="evenodd" clip-rule="evenodd" d="M38.88 31.4c-1.2-1.36-11.36-12.56-19.72-21.76-.24.16-.52.36-.76.56 8.68 10.6 17.4 21.32 17.96 22.08.68.92.4 1.76-.68 2.36-.64.36-1.92.72-2.52.72-.72 0-1.56-.36-2.12-.92-.4-.4-2.12-2.92-6.04-9-2.96-4.64-5.48-8.48-5.52-8.52l5.24 9.56c3.4 6.04 4.48 8.2 4.48 8.48 0 .56-.16.88-.88 1.68-1.16 1.32-1.72 2.84-2.12 5.96-.44 3.48-1.64 5.96-5.04 10.16-1.96 2.48-2.28 2.92-2.76 3.92-.64 1.24-.8 1.96-.88 3.56-.12 1.68.08 2.72.56 4.32.44 1.44.92 2.36 2.12 4.16 1 1.6 1.64 2.8 1.64 3.24 0 .36.08.36 1.68 0 3.8-.88 6.92-2.4 8.64-4.24 1.08-1.16 1.36-1.8 1.36-3.36 0-1.04 0-1.24-.32-1.88-.44-.96-1.28-1.76-3.08-3-2.4-1.64-3.44-2.96-3.68-4.72-.24-1.52.04-2.52 1.36-5.32 1.36-2.88 1.72-4.04 1.96-6.96.12-1.88.36-2.64.88-3.2.56-.6 1.04-.84 2.44-1 2.24-.32 3.68-.88 4.84-2 1.04-.92 1.48-1.84 1.52-3.24v-1l-.56-.64ZM23 62.12c-.44.8-1.28 1.08-1.92.6-.4-.32-.4-.76-.08-1.24s.28-.72-.12-.92c-.28-.12-.36-.28-.36-.44 0-.68 1.12-.92 1.88-.4.8.52 1.08 1.56.6 2.4Zm20.64-22.96c-.68-.36-2.04-.48-2.76-.28-1.04.32-2.08 1.48-2.36 2.6-.2.72-.12 2 .2 2.4.48.6.92.8 2.16.8 2.44 0 4.52-1.08 4.72-2.36.24-1.04-.68-2.52-1.96-3.16Zm.08 1.92c-.28.36-1.08.72-1.64.72-.88 0-1.8-.6-1.8-1.2 0-1.12 1.8-1.76 3-1 .64.4.8.96.44 1.48Z" fill="#fff"/></svg>