<svg xmlns="http://www.w3.org/2000/svg" fill="none" viewBox="0 0 96 96" class="svg-icon " style=""> <title/> <path d="M48 96c26.51 0 48-21.49 48-48S74.51 0 48 0 0 21.49 0 48s21.49 48 48 48Z" fill="#0F97F8"/><path d="M37.76 85.96c0 1.28-1.04 2-2.24 1.64-16.6-5.28-28.56-20.76-28.56-39.12 0-18.36 11.96-33.8 28.56-39.08 1.24-.4 2.24.36 2.24 1.64v3.2c0 .84-.64 1.84-1.44 2.12C23.2 21.2 13.84 33.8 13.84 48.48c0 14.68 9.36 27.32 22.48 32.08.8.28 1.44 1.28 1.44 2.12v3.28Z" fill="#fff"/><path d="M51.4 74.12c0 .96-.76 1.72-1.72 1.72h-3.4c-.96 0-1.72-.76-1.72-1.72v-5.4c-7.48-1.04-11.12-5.16-12.08-10.88-.16-1 .6-1.84 1.6-1.84h3.88c.8 0 1.48.6 1.68 1.36.72 3.36 2.68 6 8.68 6 4.4 0 7.56-2.48 7.56-6.16s-1.84-5.08-8.32-6.16c-9.56-1.28-14.12-4.2-14.12-11.68 0-5.76 4.4-10.32 11.16-11.24v-5.28c0-.96.76-1.72 1.72-1.72h3.4c.96 0 1.72.76 1.72 1.72v5.44c5.52 1 9 4.12 10.16 9.32.2 1-.56 1.88-1.6 1.88h-3.6c-.76 0-1.4-.52-1.64-1.24-1-3.28-3.32-4.76-7.44-4.76-4.52 0-6.88 2.16-6.88 5.24 0 3.24 1.32 4.88 8.28 5.84C58.12 45.84 63 48.52 63 56.52c0 6.08-4.52 11-11.6 12.08v5.48h-.04l.04.04Z" fill="#fff"/><path d="M60.48 87.6c-1.24.4-2.24-.36-2.24-1.64v-3.2c0-.96.56-1.84 1.44-2.12 13.08-4.8 22.48-17.4 22.48-32.08S72.8 21.24 59.68 16.48c-.8-.28-1.44-1.28-1.44-2.12v-3.2c0-1.28 1.04-2 2.24-1.64 16.6 5.2 28.56 20.72 28.56 39.04s-11.96 33.8-28.56 39.12v-.08Z" fill="#fff"/></svg>