<svg xmlns="http://www.w3.org/2000/svg" fill="none" viewBox="0 0 96 96" class="svg-icon " style=""> <title/> <path d="M96 48c0 26.51-21.49 48-48 48S0 74.51 0 48 21.49 0 48 0s48 21.49 48 48Z" fill="#26A17B"/><path d="M53.766 52.149v-.006c-.33.024-2.031.126-5.826.126-3.03 0-5.163-.09-5.913-.126v.009c-11.664-.513-20.37-2.544-20.37-4.974 0-2.427 8.706-4.458 20.37-4.98v7.932c.762.054 2.946.183 5.964.183 3.62 0 5.436-.15 5.775-.18v-7.929c11.64.519 20.325 2.55 20.325 4.974 0 2.43-8.685 4.455-20.325 4.971Zm0-10.77v-7.098h16.242V23.457H25.785v10.824h16.242v7.095c-13.2.606-23.127 3.222-23.127 6.354s9.927 5.745 23.127 6.354V76.83h11.739V54.078c13.179-.606 23.082-3.219 23.082-6.348s-9.903-5.742-23.082-6.351Z" fill="#fff"/></svg>