<svg xmlns="http://www.w3.org/2000/svg" fill="none" viewBox="0 0 96 96" class="svg-icon " style=""> <title/> <path d="M95.895 48.105C95.895 74.557 74.451 96 48 96 21.548 96 .105 74.556.105 48.105.105 21.653 21.548.21 48 .21c26.451 0 47.895 21.443 47.895 47.895Z" fill="#5E5E5E"/><path d="m69.72 74.295-7.5-7.41-6.84-6.78a11.11 11.11 0 0 0-7.905-3.289 11.11 11.11 0 0 0-7.904 3.288v.001l-14.326 14.19h-9l1.305-1.35 4.5-4.5 10.305-10.2c1.23-1.215 2.43-2.475 3.735-3.6a16.52 16.52 0 0 1 9.057-4.058l.078-.007a16.705 16.705 0 0 1 2.358-.162 17.15 17.15 0 0 1 11.371 4.289l-.019-.017c1.065.915 2.01 1.935 3 2.91L74.16 69.69l4.305 4.275c.081.074.15.157.207.25l.003.005-8.955.075ZM25.395 22.5l5.1 5.07c2.34 2.31 4.65 4.62 6.99 6.915a41.505 41.505 0 0 0 3.162 2.948l.063.052a10.998 10.998 0 0 0 6.803 2.337c3.062 0 5.833-1.243 7.837-3.252 3.27-3.27 6.57-6.51 9.87-9.78l4.38-4.29h9l-1.02 1.08L68.025 33l-8.31 8.22a16.752 16.752 0 0 1-9.604 4.746l-.086.01a16.57 16.57 0 0 1-2.65.206 17 17 0 0 1-11.772-4.713l.007.006c-1.665-1.5-3.225-3.15-4.83-4.74L16.62 22.71c-.075-.075-.135-.165-.21-.255l8.985.045Z" fill="#fff"/></svg>