<svg xmlns="http://www.w3.org/2000/svg" fill="#B1BAD3" viewBox="0 0 64 64" class="svg-icon " style=""> <title/> <path fill-rule="evenodd" clip-rule="evenodd" d="M0 0h23.867c-3.947 3.173-7.014 7.333-8.827 12.107H0V0Zm0 51.867h41.707v12.106H0V51.867Zm13.36-25.92H0v12.106h17.867a28.537 28.537 0 0 1-4.48-12.106h-.027ZM57.014 38.32l6.987 10.96-8.08 5.173-7.12-11.146c-2.24.773-4.64 1.2-7.12 1.2-12.24 0-22.187-9.947-22.187-22.187 0-12.24 9.947-22.187 22.187-22.187 12.24 0 22.187 9.947 22.187 22.187 0 6.293-2.64 11.947-6.854 16ZM41.681 9.733c-6.933 0-12.587 5.654-12.587 12.587s5.654 12.587 12.587 12.587 12.587-5.654 12.587-12.587S48.614 9.733 41.68 9.733Z"/></svg>