<svg xmlns="http://www.w3.org/2000/svg" fill="#B1BAD3" viewBox="0 0 64 64" class="svg-icon " style=""> <title/> <path fill-rule="evenodd" clip-rule="evenodd" d="M42.05 8.613c2.815 0 5.192 1.879 5.955 4.494l3.64 12.792H12.253l3.64-12.792.01-.044a6.197 6.197 0 0 1 5.944-4.45H42.05ZM61.488 30.77H2.461a2.461 2.461 0 0 0 0 4.921c8.873 1.271 19.12 1.997 29.539 1.997s20.664-.726 30.696-2.131l-.598.068a2.461 2.461 0 0 0-.56-4.858l-.05.003ZM33.484 43.074h-3.05c-6.335-1.515-13.677-1.22-21.547 0v2.501l3.05.58s0 9.233 9.233 9.233c6.223 0 8.247-5.583 8.908-9.233h3.721c.661 3.65 2.685 9.233 8.908 9.233 9.233 0 9.233-9.233 9.233-9.233l3.05-.58v-2.501c-7.718-1.24-15.008-1.485-21.506 0Z"/></svg>