<svg xmlns="http://www.w3.org/2000/svg" fill="none" viewBox="0 0 97 96" class="svg-icon " style=""> <title/> <path d="M96 25.48C96 15.2 89.88 6.32 81.08 2.32V0H14.92v2.32C6.12 6.32 0 15.2 0 25.48s6.12 19.16 14.92 23.16v5.92c0 8.2 9.6 13.28 21.48 15.24v9.64c-9.96 1.28-16.88 4.12-16.88 7.44v9.08h57.04v-9.08c0-3.32-6.96-6.2-16.88-7.44V69.8c11.88-1.96 21.48-7.04 21.48-15.24v-5.92c8.8-4 14.92-12.88 14.92-23.16H96Zm-88 0c0-5.64 2.72-10.64 6.92-13.84v27.64C10.76 36.08 8 31.12 8 25.44v.04Zm73.08 13.84V11.64C85.24 14.84 88 19.8 88 25.48s-2.72 10.64-6.92 13.84Z" fill="#F0B90B"/><path d="M42.998 55.6V27.12l-7.84 7.76-7.92-8.28 17.72-17.32h12.08V55.6h-14.04Z" fill="#554204"/></svg>