<svg xmlns="http://www.w3.org/2000/svg" fill="#B1BAD3" viewBox="0 0 64 64" class="svg-icon " style=""> <title/> <path d="M18.38 29.904c6.364 0 11.524-5.16 11.524-11.524 0-6.364-5.16-11.524-11.524-11.524-6.364 0-11.525 5.16-11.525 11.524 0 6.364 5.16 11.524 11.524 11.524Zm0-14.666a3.142 3.142 0 1 1-.001 6.285 3.142 3.142 0 0 1 0-6.285Zm27.24 18.858c-6.364 0-11.524 5.16-11.524 11.524 0 6.364 5.16 11.524 11.524 11.524 6.364 0 11.524-5.16 11.524-11.524 0-6.364-5.16-11.524-11.524-11.524Zm0 14.666a3.142 3.142 0 1 1 0-6.285 3.142 3.142 0 0 1 0 6.285Zm.585-41.904L6.857 57.144h10.644L56.85 6.858H46.205Z"/></svg>