<svg xmlns="http://www.w3.org/2000/svg" fill="none" viewBox="0 0 96 96" class="svg-icon " style=""> <title/> <path d="M2.986 64.696C9.768 82.974 27.362 96 48 96s38.232-13.026 45.014-31.304L48 60.522 2.986 64.696Z" fill="#FFDA44"/><path d="M48 0C27.362 0 9.768 13.026 2.986 31.304L48 35.478l45.014-4.174C86.232 13.026 68.638 0 48 0Z" fill="#000"/><path d="M2.986 31.304A47.897 47.897 0 0 0 0 48a47.897 47.897 0 0 0 2.986 16.696h90.028A47.897 47.897 0 0 0 96 48a47.893 47.893 0 0 0-2.986-16.696H2.986Z" fill="#D80027"/></svg>