<svg xmlns="http://www.w3.org/2000/svg" fill="none" viewBox="0 0 96 96" class="svg-icon " style=""> <title/> <path d="M48 96c26.51 0 48-21.49 48-48S74.51 0 48 0 0 21.49 0 48s21.49 48 48 48Z" fill="#F0F0F0"/><path d="M48 0C28.97 0 12.527 11.075 4.763 27.13h86.474C83.473 11.076 67.03 0 48 0Z" fill="#FF9811"/><path d="M48 96c19.03 0 35.473-11.075 43.237-27.13H4.763C12.527 84.924 28.97 96 48 96Z" fill="#6DA544"/><path d="M48 64.696c9.22 0 16.696-7.475 16.696-16.696 0-9.22-7.475-16.696-16.696-16.696-9.22 0-16.696 7.475-16.696 16.696 0 9.22 7.475 16.696 16.696 16.696Z" fill="#0052B4"/><path d="M48 58.435c5.763 0 10.435-4.672 10.435-10.435 0-5.763-4.672-10.435-10.435-10.435-5.763 0-10.435 4.672-10.435 10.435 0 5.763 4.672 10.435 10.435 10.435Z" fill="#F0F0F0"/><path d="m48 35.124 3.22 7.3 7.931-.862L54.438 48l4.713 6.438-7.932-.863L48 60.877l-3.22-7.3-7.931.862L41.562 48l-4.713-6.438 7.932.863L48 35.123Z" fill="#0052B4"/></svg>