<svg xmlns="http://www.w3.org/2000/svg" fill="none" viewBox="0 0 96 96" class="svg-icon " style=""> <title/> <path d="M48 96c26.51 0 48-21.49 48-48S74.51 0 48 0 0 21.49 0 48s21.49 48 48 48Z" fill="#F0F0F0"/><path d="M1.654 60.522c2.777 10.305 8.898 19.236 17.129 25.56v-25.56H1.653Zm42.172 35.295c1.376.119 2.767.183 4.174.183 22.177 0 40.838-15.041 46.346-35.478h-50.52v35.295Zm50.52-60.339C88.838 15.041 70.177 0 48 0c-1.407 0-2.798.064-4.174.183v35.295h50.52ZM18.783 9.918c-8.231 6.324-14.352 15.255-17.13 25.56h17.13V9.918Z" fill="#D80027"/><path d="M95.594 41.74H37.565V1.14a47.673 47.673 0 0 0-12.522 4.696V41.74H.406a48.413 48.413 0 0 0 0 12.522h24.637v35.902a47.674 47.674 0 0 0 12.522 4.696v-40.6h58.029a48.482 48.482 0 0 0 0-12.522Z" fill="#0052B4"/></svg>