<svg xmlns="http://www.w3.org/2000/svg" fill="none" viewBox="0 0 96 96" class="svg-icon " style=""> <title/> <path d="M96 48c0 26.51-21.49 48-48 48S0 74.51 0 48 21.49 0 48 0s48 21.49 48 48Z" fill="#F0F0F0"/><path d="M48 96c26.51 0 48-21.49 48-48S74.51 0 48 0 0 21.49 0 48s21.49 48 48 48Z" fill="#F0F0F0"/><path d="M0 48c0 18.194 10.123 34.023 25.043 42.164V5.836C10.123 13.977 0 29.806 0 48Z" fill="#F0F0F0"/><path d="M48 0a47.786 47.786 0 0 0-22.957 5.836v84.328A47.785 47.785 0 0 0 48 96c26.51 0 48-21.49 48-48S74.51 0 48 0Z" fill="#496E2D"/><path d="M68.522 55.938c-6.072 4.388-14.552 3.022-18.94-3.05-4.387-6.073-3.021-14.553 3.051-18.94a13.504 13.504 0 0 1 6.185-2.458 16.64 16.64 0 0 0-12.247 2.976c-7.474 5.4-9.155 15.837-3.755 23.311 5.4 7.474 15.837 9.155 23.31 3.754a16.637 16.637 0 0 0 6.672-10.693 13.502 13.502 0 0 1-4.276 5.1Zm-.26-24.633 3.421 3.686 4.563-2.113-2.45 4.392 3.421 3.687-4.934-.973-2.449 4.393-.6-4.993-4.934-.973 4.563-2.113-.6-4.993Z" fill="#F0F0F0"/></svg>