<svg xmlns="http://www.w3.org/2000/svg" fill="none" viewBox="0 0 96 96" class="svg-icon " style=""> <title/> <path d="M48 96c26.51 0 48-21.49 48-48S74.51 0 48 0 0 21.49 0 48s21.49 48 48 48Z" fill="#F0F0F0"/><path d="m27.13 64.696 4.174 28.319A47.891 47.891 0 0 0 48 96c20.638 0 38.232-13.026 45.014-31.304H27.131Z" fill="#000"/><path d="m27.13 31.304 4.174-28.319A47.892 47.892 0 0 1 48 0c20.638 0 38.232 13.026 45.014 31.304H27.131Z" fill="#6DA544"/><path d="M0 48c0 20.638 13.026 38.233 31.304 45.015V2.985C13.026 9.767 0 27.362 0 48Z" fill="#A2001D"/></svg>