<svg xmlns="http://www.w3.org/2000/svg" fill="none" viewBox="0 0 96 96" class="svg-icon " style=""> <title/> <path d="M48 96c26.51 0 48-21.49 48-48S74.51 0 48 0 0 21.49 0 48s21.49 48 48 48Z" fill="#F0F0F0"/><path d="M48 0v48L14.059 81.941C22.745 90.627 34.745 96 48 96c26.51 0 48-21.49 48-48S48 0 48 0Z" fill="#D80027"/><path d="M48 0C34.745 0 22.745 5.373 14.059 14.059L48 48h48C96 21.49 74.51 0 48 0Z" fill="#0052B4"/><path d="m32.867 48-5.862-2.757 3.122-5.678-6.366 1.218-.806-6.43-4.434 4.729-4.434-4.73-.807 6.431-6.366-1.218 3.122 5.678L4.174 48l5.862 2.757-3.122 5.678 6.366-1.218.806 6.43 4.434-4.729 4.434 4.73.807-6.43 6.365 1.217-3.121-5.677L32.867 48ZM12.801 18.783l1.95 2.726 3.197-1.012-1.991 2.698 1.95 2.727-3.18-1.06-1.991 2.698.025-3.353-3.181-1.06 3.196-1.012.025-3.352Zm0 49.657 1.95 2.727 3.197-1.012-1.991 2.698 1.95 2.726-3.18-1.06-1.991 2.698.025-3.352-3.181-1.06 3.196-1.012.025-3.353Zm27.824-24.828-1.95 2.726-3.197-1.012 1.991 2.698-1.95 2.727 3.18-1.06 1.991 2.697-.025-3.352 3.181-1.06-3.196-1.012-.025-3.352Z" fill="#FFDA44"/></svg>