<svg xmlns="http://www.w3.org/2000/svg" fill="none" viewBox="0 0 96 96" class="svg-icon " style=""> <title/> <path d="M48 96c26.51 0 48-21.49 48-48S74.51 0 48 0 0 21.49 0 48s21.49 48 48 48Z" fill="#F0F0F0"/><path d="M93.014 64.696A47.892 47.892 0 0 0 96 48a47.892 47.892 0 0 0-2.986-16.696H2.986A47.897 47.897 0 0 0 0 48a47.897 47.897 0 0 0 2.986 16.696L48 68.87l45.014-4.174Z" fill="#0052B4"/><path d="M48 96c20.638 0 38.232-13.026 45.014-31.304H2.986C9.768 82.974 27.362 96 48 96Z" fill="#D80027"/></svg>