<svg xmlns="http://www.w3.org/2000/svg" fill="none" viewBox="0 0 96 96" class="svg-icon " style=""> <title/> <path d="M54.43 95.557a46.563 46.563 0 0 1-6.474.441c-26.428 0-47.85-21.423-47.85-47.85 0-26.427 21.422-47.85 47.85-47.85 24.14 0 44.102 17.874 47.379 41.112l.03.252a46.44 46.44 0 0 1 .444 6.498c0 24.141-17.883 44.106-41.127 47.367l-.253.03Z" fill="#fff"/><path opacity=".1" d="M53.47.637a55.51 55.51 0 0 1 9.5 12.585l.145.285c4.205 7.632 6.68 16.728 6.68 26.4 0 20.928-11.583 39.15-28.686 48.606l-.285.144c-2.816 1.56-6.105 2.98-9.533 4.077l-.396.108c5.07 1.935 10.935 3.057 17.06 3.057 8.593 0 16.669-2.205 23.695-6.08l-.253.128c2.965-1.626 5.517-3.366 7.884-5.319l-.084.07C89.446 75.843 95.893 62.83 95.893 48.31c0-24.543-18.42-44.784-42.188-47.652l-.229-.024-.006.003Z" fill="#292929"/><path d="m45.58 13.387-.6-.075c1.156-9.3 3.48-11.7 3.57-11.805l.21.21.21.195s-2.25 2.43-3.39 11.475Zm-18.165 9.826c-5.715-2.85-16.095-4.02-16.2-4.035v-.585c.105 0 10.605 1.2 16.395 4.11l-.195.51Zm50.715 2.295c-13.754-2.865-22.5-1.17-22.59-1.155l-.06-.51c.09 0 9-1.725 22.816 1.155l-.166.51ZM14.98 57.983l-.54-.194c0-.136 4.8-13.5 14.655-19.936l.315.48c-9.66 6.285-14.355 19.516-14.43 19.65Zm-8.057-2.264c-5.22-7.5-4.725-20.805-4.695-21.405l.57-1.755c0 .15-.51 15.45 4.68 22.83l-.555.33Zm50.613 9.809c-3.006-9.753-6.75-18.198-11.343-26.09l.318.59.495-.314c4.302 7.352 8.067 15.86 10.848 24.8l.237.88-.555.134Zm17.984-1.019-.54-.36c9.18-16.635 9.855-23.07 9.87-23.16h.57c.06.135-.66 6.69-9.9 23.52ZM47.037 78.835c-16.77-.57-25.095-5.235-25.185-5.325l.315-.495c.09 0 8.295 4.62 24.885 5.205l-.015.615ZM6.668 72.37l.345.584a8.427 8.427 0 0 1 1.236-1.776l-.006.006-.405-.405a8.633 8.633 0 0 0-1.149 1.548l-.021.042Zm11.82 8.07-.51.285c2.56 4.179 5.721 7.71 9.409 10.599l.087.066c.78.375 1.5.72 2.354 1.05-4.587-3.195-8.375-7.197-11.24-11.83l-.1-.17ZM51.94 95.845l1.154-.135a34.207 34.207 0 0 0 7.206-8.427l.085-.153-.495-.285c-2.148 3.522-4.794 6.501-7.882 8.946l-.069.054ZM75.401 77.41l-.254.525c2.396 1.176 5.204 1.905 8.168 2.01h.398l.554-.615c-.09 0-.198.003-.306.003a19.93 19.93 0 0 1-8.678-1.974l.12.05Zm20.387-30.9a14.072 14.072 0 0 0-2.273-4.537l.023.036-.434.375a16.567 16.567 0 0 1 2.697 6.39l.017.105c0-.87 0-1.59-.03-2.37ZM76.48 9.728a24.016 24.016 0 0 1 5.73 8.226l.06.159.556-.21c-.885-2.226-2.01-4.146-3.381-5.865l.036.045c-1.02-.825-1.995-1.575-3-2.355Z" fill="#D6D6D6"/><path d="M58.478 23.633s-9.75 13.35-11.205 17.16c0 0-15.27-1.725-20.07-1.5-.965-4.728-1.517-10.161-1.517-15.723 0-.615.006-1.23.02-1.845l-.003.09a48.773 48.773 0 0 1 19.258-9.444l.333-.066s9.87 6.225 13.184 11.325v.003ZM15.82 55.51s2.16 11.4 8.52 18.96a38.736 38.736 0 0 0-5.238 7.301L19 81.97S9.37 75.864 7 70.224c-1.023-3.072-1.611-6.609-1.611-10.284 0-2.22.216-4.389.627-6.489l-.036.213c2.916 1.08 6.285 1.75 9.798 1.845h.042Zm60.33 7.5s-13.59-.54-19.275-.945c0 0-7.2 11.115-10.5 16.62 0 0 8.85 7.11 13.575 8.64 6.354-1.782 11.775-5.145 16.002-9.642l.018-.019s1.59-3.674.18-14.654ZM64 2.872C59.387 1.054 54.044.002 48.46.002a43.66 43.66 0 0 0-7.216.596L41.5.562h-.24c2.5.315 4.77 1.032 6.834 2.094l-.114-.054s9.435-1.29 16.02.27ZM12.864 19.087c.636-2.366 1.497-4.437 2.59-6.357l-.07.133c-6.18 5.73-12 15-13.74 23.19 1.68-5.175 4.726-12.045 11.22-16.965Zm72.512-.764a23.816 23.816 0 0 0-4.026-2.94l-.113-.06-5.34 9.39s6.944 10.725 8.91 18.795l10.124 1.215c.195-.996.334-2.178.388-3.381l.002-.054c-1.296-8.811-4.835-16.623-10.016-23.058l.071.093Z" fill="#292929"/></svg>