<svg xmlns="http://www.w3.org/2000/svg" fill="none" viewBox="0 0 96 96" class="svg-icon " style=""> <title/> <path d="M48 96c26.51 0 48-21.49 48-48S74.51 0 48 0 0 21.49 0 48s21.49 48 48 48Z" fill="#D80027"/><path d="m46.035 39.222 3.938 5.428 6.378-2.069-3.944 5.423 3.938 5.427-6.376-2.076-3.945 5.422.004-6.705-6.376-2.076 6.379-2.068.004-6.706Z" fill="#F0F0F0"/><path d="M35.286 61.565c-7.491 0-13.565-6.073-13.565-13.565 0-7.492 6.074-13.565 13.565-13.565 2.336 0 4.534.59 6.453 1.63a16.637 16.637 0 0 0-11.67-4.76c-9.22 0-16.696 7.474-16.696 16.695 0 9.22 7.475 16.695 16.696 16.695a16.64 16.64 0 0 0 11.67-4.76 13.501 13.501 0 0 1-6.453 1.63Z" fill="#F0F0F0"/></svg>